<?xml version="1.0" encoding="utf-8" standalone="no"?>
<!DOCTYPE svg PUBLIC "-//W3C//DTD SVG 1.1//EN"
  "http://www.w3.org/Graphics/SVG/1.1/DTD/svg11.dtd">
<svg xmlns:xlink="http://www.w3.org/1999/xlink" width="306.899617pt" height="220.030886pt" viewBox="0 0 306.899617 220.030886" xmlns="http://www.w3.org/2000/svg" version="1.1">
 <metadata>
  <rdf:RDF xmlns:dc="http://purl.org/dc/elements/1.1/" xmlns:cc="http://creativecommons.org/ns#" xmlns:rdf="http://www.w3.org/1999/02/22-rdf-syntax-ns#">
   <cc:Work>
    <dc:type rdf:resource="http://purl.org/dc/dcmitype/StillImage"/>
    <dc:date>2026-08-08T15:11:40.494094</dc:date>
    <dc:format>image/svg+xml</dc:format>
    <dc:creator>
     <cc:Agent>
      <dc:title>Matplotlib v3.11.1, https://matplotlib.org/</dc:title>
     </cc:Agent>
    </dc:creator>
   </cc:Work>
  </rdf:RDF>
 </metadata>
 <defs>
  <style type="text/css">*{stroke-linejoin: round; stroke-linecap: butt}</style>
 </defs>
 <g id="figure_1">
  <g id="patch_1">
   <path d="M 0 220.030886 
L 306.899617 220.030886 
L 306.899617 0 
L 0 0 
z
" style="fill: #ffffff"/>
  </g>
  <g id="axes_1">
   <g id="patch_2">
    <path d="M 52.650703 184.830183 
L 299.699617 184.830183 
L 299.699617 20.798437 
L 52.650703 20.798437 
z
" style="fill: #ffffff"/>
   </g>
   <g id="matplotlib.axis_1">
    <g id="xtick_1">
     <g id="line2d_1">
      <path d="M 63.880199 184.830183 
L 63.880199 20.798437 
" clip-path="url(#pe4cc41feab)" style="fill: none; stroke: #9a9a9a; stroke-opacity: 0.5; stroke-width: 0.4; stroke-linecap: square"/>
     </g>
     <g id="line2d_2">
      <defs>
       <path id="mbb5e5ac18f" d="M 0 0 
L 0 3.5 
" style="stroke: #000000; stroke-width: 0.8"/>
      </defs>
      <g>
       <use xlink:href="#mbb5e5ac18f" x="63.880199" y="184.830183" style="stroke: #000000; stroke-width: 0.8"/>
      </g>
     </g>
     <g id="text_1">
      <!-- 0 -->
      <g transform="translate(61.335199 197.908308) scale(0.08 -0.08)">
       <defs>
        <path id="DejaVuSans-13" d="M 2034 4250 
Q 1547 4250 1301 3770 
Q 1056 3291 1056 2328 
Q 1056 1369 1301 889 
Q 1547 409 2034 409 
Q 2525 409 2770 889 
Q 3016 1369 3016 2328 
Q 3016 3291 2770 3770 
Q 2525 4250 2034 4250 
z
M 2034 4750 
Q 2819 4750 3233 4129 
Q 3647 3509 3647 2328 
Q 3647 1150 3233 529 
Q 2819 -91 2034 -91 
Q 1250 -91 836 529 
Q 422 1150 422 2328 
Q 422 3509 836 4129 
Q 1250 4750 2034 4750 
z
" transform="scale(0.015625)"/>
       </defs>
       <use xlink:href="#DejaVuSans-13"/>
      </g>
     </g>
    </g>
    <g id="xtick_2">
     <g id="line2d_3">
      <path d="M 94.722597 184.830183 
L 94.722597 20.798437 
" clip-path="url(#pe4cc41feab)" style="fill: none; stroke: #9a9a9a; stroke-opacity: 0.5; stroke-width: 0.4; stroke-linecap: square"/>
     </g>
     <g id="line2d_4">
      <g>
       <use xlink:href="#mbb5e5ac18f" x="94.722597" y="184.830183" style="stroke: #000000; stroke-width: 0.8"/>
      </g>
     </g>
     <g id="text_2">
      <!-- 5000 -->
      <g transform="translate(84.542597 197.908308) scale(0.08 -0.08)">
       <defs>
        <path id="DejaVuSans-18" d="M 691 4666 
L 3169 4666 
L 3169 4134 
L 1269 4134 
L 1269 2991 
Q 1406 3038 1543 3061 
Q 1681 3084 1819 3084 
Q 2600 3084 3056 2656 
Q 3513 2228 3513 1497 
Q 3513 744 3044 326 
Q 2575 -91 1722 -91 
Q 1428 -91 1123 -41 
Q 819 9 494 109 
L 494 744 
Q 775 591 1075 516 
Q 1375 441 1709 441 
Q 2250 441 2565 725 
Q 2881 1009 2881 1497 
Q 2881 1984 2565 2268 
Q 2250 2553 1709 2553 
Q 1456 2553 1204 2497 
Q 953 2441 691 2322 
L 691 4666 
z
" transform="scale(0.015625)"/>
       </defs>
       <use xlink:href="#DejaVuSans-18"/>
       <use xlink:href="#DejaVuSans-13" transform="translate(63.625 0)"/>
       <use xlink:href="#DejaVuSans-13" transform="translate(127.25 0)"/>
       <use xlink:href="#DejaVuSans-13" transform="translate(190.875 0)"/>
      </g>
     </g>
    </g>
    <g id="xtick_3">
     <g id="line2d_5">
      <path d="M 125.564995 184.830183 
L 125.564995 20.798437 
" clip-path="url(#pe4cc41feab)" style="fill: none; stroke: #9a9a9a; stroke-opacity: 0.5; stroke-width: 0.4; stroke-linecap: square"/>
     </g>
     <g id="line2d_6">
      <g>
       <use xlink:href="#mbb5e5ac18f" x="125.564995" y="184.830183" style="stroke: #000000; stroke-width: 0.8"/>
      </g>
     </g>
     <g id="text_3">
      <!-- 10000 -->
      <g transform="translate(112.839995 197.908308) scale(0.08 -0.08)">
       <defs>
        <path id="DejaVuSans-14" d="M 794 531 
L 1825 531 
L 1825 4091 
L 703 3866 
L 703 4441 
L 1819 4666 
L 2450 4666 
L 2450 531 
L 3481 531 
L 3481 0 
L 794 0 
L 794 531 
z
" transform="scale(0.015625)"/>
       </defs>
       <use xlink:href="#DejaVuSans-14"/>
       <use xlink:href="#DejaVuSans-13" transform="translate(63.625 0)"/>
       <use xlink:href="#DejaVuSans-13" transform="translate(127.25 0)"/>
       <use xlink:href="#DejaVuSans-13" transform="translate(190.875 0)"/>
       <use xlink:href="#DejaVuSans-13" transform="translate(254.5 0)"/>
      </g>
     </g>
    </g>
    <g id="xtick_4">
     <g id="line2d_7">
      <path d="M 156.407393 184.830183 
L 156.407393 20.798437 
" clip-path="url(#pe4cc41feab)" style="fill: none; stroke: #9a9a9a; stroke-opacity: 0.5; stroke-width: 0.4; stroke-linecap: square"/>
     </g>
     <g id="line2d_8">
      <g>
       <use xlink:href="#mbb5e5ac18f" x="156.407393" y="184.830183" style="stroke: #000000; stroke-width: 0.8"/>
      </g>
     </g>
     <g id="text_4">
      <!-- 15000 -->
      <g transform="translate(143.682393 197.908308) scale(0.08 -0.08)">
       <use xlink:href="#DejaVuSans-14"/>
       <use xlink:href="#DejaVuSans-18" transform="translate(63.625 0)"/>
       <use xlink:href="#DejaVuSans-13" transform="translate(127.25 0)"/>
       <use xlink:href="#DejaVuSans-13" transform="translate(190.875 0)"/>
       <use xlink:href="#DejaVuSans-13" transform="translate(254.5 0)"/>
      </g>
     </g>
    </g>
    <g id="xtick_5">
     <g id="line2d_9">
      <path d="M 187.249792 184.830183 
L 187.249792 20.798437 
" clip-path="url(#pe4cc41feab)" style="fill: none; stroke: #9a9a9a; stroke-opacity: 0.5; stroke-width: 0.4; stroke-linecap: square"/>
     </g>
     <g id="line2d_10">
      <g>
       <use xlink:href="#mbb5e5ac18f" x="187.249792" y="184.830183" style="stroke: #000000; stroke-width: 0.8"/>
      </g>
     </g>
     <g id="text_5">
      <!-- 20000 -->
      <g transform="translate(174.524792 197.908308) scale(0.08 -0.08)">
       <defs>
        <path id="DejaVuSans-15" d="M 1228 531 
L 3431 531 
L 3431 0 
L 469 0 
L 469 531 
Q 828 903 1448 1529 
Q 2069 2156 2228 2338 
Q 2531 2678 2651 2914 
Q 2772 3150 2772 3378 
Q 2772 3750 2511 3984 
Q 2250 4219 1831 4219 
Q 1534 4219 1204 4116 
Q 875 4013 500 3803 
L 500 4441 
Q 881 4594 1212 4672 
Q 1544 4750 1819 4750 
Q 2544 4750 2975 4387 
Q 3406 4025 3406 3419 
Q 3406 3131 3298 2873 
Q 3191 2616 2906 2266 
Q 2828 2175 2409 1742 
Q 1991 1309 1228 531 
z
" transform="scale(0.015625)"/>
       </defs>
       <use xlink:href="#DejaVuSans-15"/>
       <use xlink:href="#DejaVuSans-13" transform="translate(63.625 0)"/>
       <use xlink:href="#DejaVuSans-13" transform="translate(127.25 0)"/>
       <use xlink:href="#DejaVuSans-13" transform="translate(190.875 0)"/>
       <use xlink:href="#DejaVuSans-13" transform="translate(254.5 0)"/>
      </g>
     </g>
    </g>
    <g id="xtick_6">
     <g id="line2d_11">
      <path d="M 218.09219 184.830183 
L 218.09219 20.798437 
" clip-path="url(#pe4cc41feab)" style="fill: none; stroke: #9a9a9a; stroke-opacity: 0.5; stroke-width: 0.4; stroke-linecap: square"/>
     </g>
     <g id="line2d_12">
      <g>
       <use xlink:href="#mbb5e5ac18f" x="218.09219" y="184.830183" style="stroke: #000000; stroke-width: 0.8"/>
      </g>
     </g>
     <g id="text_6">
      <!-- 25000 -->
      <g transform="translate(205.36719 197.908308) scale(0.08 -0.08)">
       <use xlink:href="#DejaVuSans-15"/>
       <use xlink:href="#DejaVuSans-18" transform="translate(63.625 0)"/>
       <use xlink:href="#DejaVuSans-13" transform="translate(127.25 0)"/>
       <use xlink:href="#DejaVuSans-13" transform="translate(190.875 0)"/>
       <use xlink:href="#DejaVuSans-13" transform="translate(254.5 0)"/>
      </g>
     </g>
    </g>
    <g id="xtick_7">
     <g id="line2d_13">
      <path d="M 248.934588 184.830183 
L 248.934588 20.798437 
" clip-path="url(#pe4cc41feab)" style="fill: none; stroke: #9a9a9a; stroke-opacity: 0.5; stroke-width: 0.4; stroke-linecap: square"/>
     </g>
     <g id="line2d_14">
      <g>
       <use xlink:href="#mbb5e5ac18f" x="248.934588" y="184.830183" style="stroke: #000000; stroke-width: 0.8"/>
      </g>
     </g>
     <g id="text_7">
      <!-- 30000 -->
      <g transform="translate(236.209588 197.908308) scale(0.08 -0.08)">
       <defs>
        <path id="DejaVuSans-16" d="M 2597 2516 
Q 3050 2419 3304 2112 
Q 3559 1806 3559 1356 
Q 3559 666 3084 287 
Q 2609 -91 1734 -91 
Q 1441 -91 1130 -33 
Q 819 25 488 141 
L 488 750 
Q 750 597 1062 519 
Q 1375 441 1716 441 
Q 2309 441 2620 675 
Q 2931 909 2931 1356 
Q 2931 1769 2642 2001 
Q 2353 2234 1838 2234 
L 1294 2234 
L 1294 2753 
L 1863 2753 
Q 2328 2753 2575 2939 
Q 2822 3125 2822 3475 
Q 2822 3834 2567 4026 
Q 2313 4219 1838 4219 
Q 1578 4219 1281 4162 
Q 984 4106 628 3988 
L 628 4550 
Q 988 4650 1302 4700 
Q 1616 4750 1894 4750 
Q 2613 4750 3031 4423 
Q 3450 4097 3450 3541 
Q 3450 3153 3228 2886 
Q 3006 2619 2597 2516 
z
" transform="scale(0.015625)"/>
       </defs>
       <use xlink:href="#DejaVuSans-16"/>
       <use xlink:href="#DejaVuSans-13" transform="translate(63.625 0)"/>
       <use xlink:href="#DejaVuSans-13" transform="translate(127.25 0)"/>
       <use xlink:href="#DejaVuSans-13" transform="translate(190.875 0)"/>
       <use xlink:href="#DejaVuSans-13" transform="translate(254.5 0)"/>
      </g>
     </g>
    </g>
    <g id="xtick_8">
     <g id="line2d_15">
      <path d="M 279.776986 184.830183 
L 279.776986 20.798437 
" clip-path="url(#pe4cc41feab)" style="fill: none; stroke: #9a9a9a; stroke-opacity: 0.5; stroke-width: 0.4; stroke-linecap: square"/>
     </g>
     <g id="line2d_16">
      <g>
       <use xlink:href="#mbb5e5ac18f" x="279.776986" y="184.830183" style="stroke: #000000; stroke-width: 0.8"/>
      </g>
     </g>
     <g id="text_8">
      <!-- 35000 -->
      <g transform="translate(267.051986 197.908308) scale(0.08 -0.08)">
       <use xlink:href="#DejaVuSans-16"/>
       <use xlink:href="#DejaVuSans-18" transform="translate(63.625 0)"/>
       <use xlink:href="#DejaVuSans-13" transform="translate(127.25 0)"/>
       <use xlink:href="#DejaVuSans-13" transform="translate(190.875 0)"/>
       <use xlink:href="#DejaVuSans-13" transform="translate(254.5 0)"/>
      </g>
     </g>
    </g>
    <g id="text_9">
     <!-- acumulado del patron de vecinas (mm) -->
     <g transform="translate(87.462582 210.668776) scale(0.09 -0.09)">
      <defs>
       <path id="DejaVuSans-44" d="M 2194 1759 
Q 1497 1759 1228 1600 
Q 959 1441 959 1056 
Q 959 750 1161 570 
Q 1363 391 1709 391 
Q 2188 391 2477 730 
Q 2766 1069 2766 1631 
L 2766 1759 
L 2194 1759 
z
M 3341 1997 
L 3341 0 
L 2766 0 
L 2766 531 
Q 2569 213 2275 61 
Q 1981 -91 1556 -91 
Q 1019 -91 701 211 
Q 384 513 384 1019 
Q 384 1609 779 1909 
Q 1175 2209 1959 2209 
L 2766 2209 
L 2766 2266 
Q 2766 2663 2505 2880 
Q 2244 3097 1772 3097 
Q 1472 3097 1187 3025 
Q 903 2953 641 2809 
L 641 3341 
Q 956 3463 1253 3523 
Q 1550 3584 1831 3584 
Q 2591 3584 2966 3190 
Q 3341 2797 3341 1997 
z
" transform="scale(0.015625)"/>
       <path id="DejaVuSans-46" d="M 3122 3366 
L 3122 2828 
Q 2878 2963 2633 3030 
Q 2388 3097 2138 3097 
Q 1578 3097 1268 2742 
Q 959 2388 959 1747 
Q 959 1106 1268 751 
Q 1578 397 2138 397 
Q 2388 397 2633 464 
Q 2878 531 3122 666 
L 3122 134 
Q 2881 22 2623 -34 
Q 2366 -91 2075 -91 
Q 1284 -91 818 406 
Q 353 903 353 1747 
Q 353 2603 823 3093 
Q 1294 3584 2113 3584 
Q 2378 3584 2631 3529 
Q 2884 3475 3122 3366 
z
" transform="scale(0.015625)"/>
       <path id="DejaVuSans-58" d="M 544 1381 
L 544 3500 
L 1119 3500 
L 1119 1403 
Q 1119 906 1312 657 
Q 1506 409 1894 409 
Q 2359 409 2629 706 
Q 2900 1003 2900 1516 
L 2900 3500 
L 3475 3500 
L 3475 0 
L 2900 0 
L 2900 538 
Q 2691 219 2414 64 
Q 2138 -91 1772 -91 
Q 1169 -91 856 284 
Q 544 659 544 1381 
z
M 1991 3584 
L 1991 3584 
z
" transform="scale(0.015625)"/>
       <path id="DejaVuSans-50" d="M 3328 2828 
Q 3544 3216 3844 3400 
Q 4144 3584 4550 3584 
Q 5097 3584 5394 3201 
Q 5691 2819 5691 2113 
L 5691 0 
L 5113 0 
L 5113 2094 
Q 5113 2597 4934 2840 
Q 4756 3084 4391 3084 
Q 3944 3084 3684 2787 
Q 3425 2491 3425 1978 
L 3425 0 
L 2847 0 
L 2847 2094 
Q 2847 2600 2669 2842 
Q 2491 3084 2119 3084 
Q 1678 3084 1418 2786 
Q 1159 2488 1159 1978 
L 1159 0 
L 581 0 
L 581 3500 
L 1159 3500 
L 1159 2956 
Q 1356 3278 1631 3431 
Q 1906 3584 2284 3584 
Q 2666 3584 2933 3390 
Q 3200 3197 3328 2828 
z
" transform="scale(0.015625)"/>
       <path id="DejaVuSans-4f" d="M 603 4863 
L 1178 4863 
L 1178 0 
L 603 0 
L 603 4863 
z
" transform="scale(0.015625)"/>
       <path id="DejaVuSans-47" d="M 2906 2969 
L 2906 4863 
L 3481 4863 
L 3481 0 
L 2906 0 
L 2906 525 
Q 2725 213 2448 61 
Q 2172 -91 1784 -91 
Q 1150 -91 751 415 
Q 353 922 353 1747 
Q 353 2572 751 3078 
Q 1150 3584 1784 3584 
Q 2172 3584 2448 3432 
Q 2725 3281 2906 2969 
z
M 947 1747 
Q 947 1113 1208 752 
Q 1469 391 1925 391 
Q 2381 391 2643 752 
Q 2906 1113 2906 1747 
Q 2906 2381 2643 2742 
Q 2381 3103 1925 3103 
Q 1469 3103 1208 2742 
Q 947 2381 947 1747 
z
" transform="scale(0.015625)"/>
       <path id="DejaVuSans-52" d="M 1959 3097 
Q 1497 3097 1228 2736 
Q 959 2375 959 1747 
Q 959 1119 1226 758 
Q 1494 397 1959 397 
Q 2419 397 2687 759 
Q 2956 1122 2956 1747 
Q 2956 2369 2687 2733 
Q 2419 3097 1959 3097 
z
M 1959 3584 
Q 2709 3584 3137 3096 
Q 3566 2609 3566 1747 
Q 3566 888 3137 398 
Q 2709 -91 1959 -91 
Q 1206 -91 779 398 
Q 353 888 353 1747 
Q 353 2609 779 3096 
Q 1206 3584 1959 3584 
z
" transform="scale(0.015625)"/>
       <path id="DejaVuSans-3" transform="scale(0.015625)"/>
       <path id="DejaVuSans-48" d="M 3597 1894 
L 3597 1613 
L 953 1613 
Q 991 1019 1311 708 
Q 1631 397 2203 397 
Q 2534 397 2845 478 
Q 3156 559 3463 722 
L 3463 178 
Q 3153 47 2828 -22 
Q 2503 -91 2169 -91 
Q 1331 -91 842 396 
Q 353 884 353 1716 
Q 353 2575 817 3079 
Q 1281 3584 2069 3584 
Q 2775 3584 3186 3129 
Q 3597 2675 3597 1894 
z
M 3022 2063 
Q 3016 2534 2758 2815 
Q 2500 3097 2075 3097 
Q 1594 3097 1305 2825 
Q 1016 2553 972 2059 
L 3022 2063 
z
" transform="scale(0.015625)"/>
       <path id="DejaVuSans-53" d="M 1159 525 
L 1159 -1331 
L 581 -1331 
L 581 3500 
L 1159 3500 
L 1159 2969 
Q 1341 3281 1617 3432 
Q 1894 3584 2278 3584 
Q 2916 3584 3314 3078 
Q 3713 2572 3713 1747 
Q 3713 922 3314 415 
Q 2916 -91 2278 -91 
Q 1894 -91 1617 61 
Q 1341 213 1159 525 
z
M 3116 1747 
Q 3116 2381 2855 2742 
Q 2594 3103 2138 3103 
Q 1681 3103 1420 2742 
Q 1159 2381 1159 1747 
Q 1159 1113 1420 752 
Q 1681 391 2138 391 
Q 2594 391 2855 752 
Q 3116 1113 3116 1747 
z
" transform="scale(0.015625)"/>
       <path id="DejaVuSans-57" d="M 1172 4494 
L 1172 3500 
L 2356 3500 
L 2356 3053 
L 1172 3053 
L 1172 1153 
Q 1172 725 1289 603 
Q 1406 481 1766 481 
L 2356 481 
L 2356 0 
L 1766 0 
Q 1100 0 847 248 
Q 594 497 594 1153 
L 594 3053 
L 172 3053 
L 172 3500 
L 594 3500 
L 594 4494 
L 1172 4494 
z
" transform="scale(0.015625)"/>
       <path id="DejaVuSans-55" d="M 2631 2963 
Q 2534 3019 2420 3045 
Q 2306 3072 2169 3072 
Q 1681 3072 1420 2755 
Q 1159 2438 1159 1844 
L 1159 0 
L 581 0 
L 581 3500 
L 1159 3500 
L 1159 2956 
Q 1341 3275 1631 3429 
Q 1922 3584 2338 3584 
Q 2397 3584 2469 3576 
Q 2541 3569 2628 3553 
L 2631 2963 
z
" transform="scale(0.015625)"/>
       <path id="DejaVuSans-51" d="M 3513 2113 
L 3513 0 
L 2938 0 
L 2938 2094 
Q 2938 2591 2744 2837 
Q 2550 3084 2163 3084 
Q 1697 3084 1428 2787 
Q 1159 2491 1159 1978 
L 1159 0 
L 581 0 
L 581 3500 
L 1159 3500 
L 1159 2956 
Q 1366 3272 1645 3428 
Q 1925 3584 2291 3584 
Q 2894 3584 3203 3211 
Q 3513 2838 3513 2113 
z
" transform="scale(0.015625)"/>
       <path id="DejaVuSans-59" d="M 191 3500 
L 800 3500 
L 1894 563 
L 2988 3500 
L 3597 3500 
L 2284 0 
L 1503 0 
L 191 3500 
z
" transform="scale(0.015625)"/>
       <path id="DejaVuSans-4c" d="M 603 3500 
L 1178 3500 
L 1178 0 
L 603 0 
L 603 3500 
z
M 603 4863 
L 1178 4863 
L 1178 4134 
L 603 4134 
L 603 4863 
z
" transform="scale(0.015625)"/>
       <path id="DejaVuSans-56" d="M 2834 3397 
L 2834 2853 
Q 2591 2978 2328 3040 
Q 2066 3103 1784 3103 
Q 1356 3103 1142 2972 
Q 928 2841 928 2578 
Q 928 2378 1081 2264 
Q 1234 2150 1697 2047 
L 1894 2003 
Q 2506 1872 2764 1633 
Q 3022 1394 3022 966 
Q 3022 478 2636 193 
Q 2250 -91 1575 -91 
Q 1294 -91 989 -36 
Q 684 19 347 128 
L 347 722 
Q 666 556 975 473 
Q 1284 391 1588 391 
Q 1994 391 2212 530 
Q 2431 669 2431 922 
Q 2431 1156 2273 1281 
Q 2116 1406 1581 1522 
L 1381 1569 
Q 847 1681 609 1914 
Q 372 2147 372 2553 
Q 372 3047 722 3315 
Q 1072 3584 1716 3584 
Q 2034 3584 2315 3537 
Q 2597 3491 2834 3397 
z
" transform="scale(0.015625)"/>
       <path id="DejaVuSans-b" d="M 1984 4856 
Q 1566 4138 1362 3434 
Q 1159 2731 1159 2009 
Q 1159 1288 1364 580 
Q 1569 -128 1984 -844 
L 1484 -844 
Q 1016 -109 783 600 
Q 550 1309 550 2009 
Q 550 2706 781 3412 
Q 1013 4119 1484 4856 
L 1984 4856 
z
" transform="scale(0.015625)"/>
       <path id="DejaVuSans-c" d="M 513 4856 
L 1013 4856 
Q 1481 4119 1714 3412 
Q 1947 2706 1947 2009 
Q 1947 1309 1714 600 
Q 1481 -109 1013 -844 
L 513 -844 
Q 928 -128 1133 580 
Q 1338 1288 1338 2009 
Q 1338 2731 1133 3434 
Q 928 4138 513 4856 
z
" transform="scale(0.015625)"/>
      </defs>
      <use xlink:href="#DejaVuSans-44"/>
      <use xlink:href="#DejaVuSans-46" transform="translate(61.28125 0)"/>
      <use xlink:href="#DejaVuSans-58" transform="translate(116.265625 0)"/>
      <use xlink:href="#DejaVuSans-50" transform="translate(179.640625 0)"/>
      <use xlink:href="#DejaVuSans-58" transform="translate(277.046875 0)"/>
      <use xlink:href="#DejaVuSans-4f" transform="translate(340.421875 0)"/>
      <use xlink:href="#DejaVuSans-44" transform="translate(368.203125 0)"/>
      <use xlink:href="#DejaVuSans-47" transform="translate(429.484375 0)"/>
      <use xlink:href="#DejaVuSans-52" transform="translate(492.96875 0)"/>
      <use xlink:href="#DejaVuSans-3" transform="translate(554.15625 0)"/>
      <use xlink:href="#DejaVuSans-47" transform="translate(585.9375 0)"/>
      <use xlink:href="#DejaVuSans-48" transform="translate(649.421875 0)"/>
      <use xlink:href="#DejaVuSans-4f" transform="translate(710.953125 0)"/>
      <use xlink:href="#DejaVuSans-3" transform="translate(738.734375 0)"/>
      <use xlink:href="#DejaVuSans-53" transform="translate(770.515625 0)"/>
      <use xlink:href="#DejaVuSans-44" transform="translate(834 0)"/>
      <use xlink:href="#DejaVuSans-57" transform="translate(895.28125 0)"/>
      <use xlink:href="#DejaVuSans-55" transform="translate(934.484375 0)"/>
      <use xlink:href="#DejaVuSans-52" transform="translate(973.390625 0)"/>
      <use xlink:href="#DejaVuSans-51" transform="translate(1034.578125 0)"/>
      <use xlink:href="#DejaVuSans-3" transform="translate(1097.953125 0)"/>
      <use xlink:href="#DejaVuSans-47" transform="translate(1129.734375 0)"/>
      <use xlink:href="#DejaVuSans-48" transform="translate(1193.21875 0)"/>
      <use xlink:href="#DejaVuSans-3" transform="translate(1254.75 0)"/>
      <use xlink:href="#DejaVuSans-59" transform="translate(1286.53125 0)"/>
      <use xlink:href="#DejaVuSans-48" transform="translate(1345.71875 0)"/>
      <use xlink:href="#DejaVuSans-46" transform="translate(1407.25 0)"/>
      <use xlink:href="#DejaVuSans-4c" transform="translate(1462.234375 0)"/>
      <use xlink:href="#DejaVuSans-51" transform="translate(1490.015625 0)"/>
      <use xlink:href="#DejaVuSans-44" transform="translate(1553.390625 0)"/>
      <use xlink:href="#DejaVuSans-56" transform="translate(1614.671875 0)"/>
      <use xlink:href="#DejaVuSans-3" transform="translate(1666.765625 0)"/>
      <use xlink:href="#DejaVuSans-b" transform="translate(1698.546875 0)"/>
      <use xlink:href="#DejaVuSans-50" transform="translate(1737.5625 0)"/>
      <use xlink:href="#DejaVuSans-50" transform="translate(1834.96875 0)"/>
      <use xlink:href="#DejaVuSans-c" transform="translate(1932.375 0)"/>
     </g>
    </g>
   </g>
   <g id="matplotlib.axis_2">
    <g id="ytick_1">
     <g id="line2d_17">
      <path d="M 52.650703 177.374194 
L 299.699617 177.374194 
" clip-path="url(#pe4cc41feab)" style="fill: none; stroke: #9a9a9a; stroke-opacity: 0.5; stroke-width: 0.4; stroke-linecap: square"/>
     </g>
     <g id="line2d_18">
      <defs>
       <path id="m3d62f7e2ce" d="M 0 0 
L -3.5 0 
" style="stroke: #000000; stroke-width: 0.8"/>
      </defs>
      <g>
       <use xlink:href="#m3d62f7e2ce" x="52.650703" y="177.374194" style="stroke: #000000; stroke-width: 0.8"/>
      </g>
     </g>
     <g id="text_10">
      <!-- 0 -->
      <g transform="translate(40.560703 180.413257) scale(0.08 -0.08)">
       <use xlink:href="#DejaVuSans-13"/>
      </g>
     </g>
    </g>
    <g id="ytick_2">
     <g id="line2d_19">
      <path d="M 52.650703 141.4315 
L 299.699617 141.4315 
" clip-path="url(#pe4cc41feab)" style="fill: none; stroke: #9a9a9a; stroke-opacity: 0.5; stroke-width: 0.4; stroke-linecap: square"/>
     </g>
     <g id="line2d_20">
      <g>
       <use xlink:href="#m3d62f7e2ce" x="52.650703" y="141.4315" style="stroke: #000000; stroke-width: 0.8"/>
      </g>
     </g>
     <g id="text_11">
      <!-- 10000 -->
      <g transform="translate(20.200703 144.470563) scale(0.08 -0.08)">
       <use xlink:href="#DejaVuSans-14"/>
       <use xlink:href="#DejaVuSans-13" transform="translate(63.625 0)"/>
       <use xlink:href="#DejaVuSans-13" transform="translate(127.25 0)"/>
       <use xlink:href="#DejaVuSans-13" transform="translate(190.875 0)"/>
       <use xlink:href="#DejaVuSans-13" transform="translate(254.5 0)"/>
      </g>
     </g>
    </g>
    <g id="ytick_3">
     <g id="line2d_21">
      <path d="M 52.650703 105.488806 
L 299.699617 105.488806 
" clip-path="url(#pe4cc41feab)" style="fill: none; stroke: #9a9a9a; stroke-opacity: 0.5; stroke-width: 0.4; stroke-linecap: square"/>
     </g>
     <g id="line2d_22">
      <g>
       <use xlink:href="#m3d62f7e2ce" x="52.650703" y="105.488806" style="stroke: #000000; stroke-width: 0.8"/>
      </g>
     </g>
     <g id="text_12">
      <!-- 20000 -->
      <g transform="translate(20.200703 108.527868) scale(0.08 -0.08)">
       <use xlink:href="#DejaVuSans-15"/>
       <use xlink:href="#DejaVuSans-13" transform="translate(63.625 0)"/>
       <use xlink:href="#DejaVuSans-13" transform="translate(127.25 0)"/>
       <use xlink:href="#DejaVuSans-13" transform="translate(190.875 0)"/>
       <use xlink:href="#DejaVuSans-13" transform="translate(254.5 0)"/>
      </g>
     </g>
    </g>
    <g id="ytick_4">
     <g id="line2d_23">
      <path d="M 52.650703 69.546112 
L 299.699617 69.546112 
" clip-path="url(#pe4cc41feab)" style="fill: none; stroke: #9a9a9a; stroke-opacity: 0.5; stroke-width: 0.4; stroke-linecap: square"/>
     </g>
     <g id="line2d_24">
      <g>
       <use xlink:href="#m3d62f7e2ce" x="52.650703" y="69.546112" style="stroke: #000000; stroke-width: 0.8"/>
      </g>
     </g>
     <g id="text_13">
      <!-- 30000 -->
      <g transform="translate(20.200703 72.585174) scale(0.08 -0.08)">
       <use xlink:href="#DejaVuSans-16"/>
       <use xlink:href="#DejaVuSans-13" transform="translate(63.625 0)"/>
       <use xlink:href="#DejaVuSans-13" transform="translate(127.25 0)"/>
       <use xlink:href="#DejaVuSans-13" transform="translate(190.875 0)"/>
       <use xlink:href="#DejaVuSans-13" transform="translate(254.5 0)"/>
      </g>
     </g>
    </g>
    <g id="ytick_5">
     <g id="line2d_25">
      <path d="M 52.650703 33.603418 
L 299.699617 33.603418 
" clip-path="url(#pe4cc41feab)" style="fill: none; stroke: #9a9a9a; stroke-opacity: 0.5; stroke-width: 0.4; stroke-linecap: square"/>
     </g>
     <g id="line2d_26">
      <g>
       <use xlink:href="#m3d62f7e2ce" x="52.650703" y="33.603418" style="stroke: #000000; stroke-width: 0.8"/>
      </g>
     </g>
     <g id="text_14">
      <!-- 40000 -->
      <g transform="translate(20.200703 36.64248) scale(0.08 -0.08)">
       <defs>
        <path id="DejaVuSans-17" d="M 2419 4116 
L 825 1625 
L 2419 1625 
L 2419 4116 
z
M 2253 4666 
L 3047 4666 
L 3047 1625 
L 3713 1625 
L 3713 1100 
L 3047 1100 
L 3047 0 
L 2419 0 
L 2419 1100 
L 313 1100 
L 313 1709 
L 2253 4666 
z
" transform="scale(0.015625)"/>
       </defs>
       <use xlink:href="#DejaVuSans-17"/>
       <use xlink:href="#DejaVuSans-13" transform="translate(63.625 0)"/>
       <use xlink:href="#DejaVuSans-13" transform="translate(127.25 0)"/>
       <use xlink:href="#DejaVuSans-13" transform="translate(190.875 0)"/>
       <use xlink:href="#DejaVuSans-13" transform="translate(254.5 0)"/>
      </g>
     </g>
    </g>
    <g id="text_15">
     <!-- acumulado de la estacion (mm) -->
     <g transform="translate(14.038594 174.348138) rotate(-90) scale(0.09 -0.09)">
      <use xlink:href="#DejaVuSans-44"/>
      <use xlink:href="#DejaVuSans-46" transform="translate(61.28125 0)"/>
      <use xlink:href="#DejaVuSans-58" transform="translate(116.265625 0)"/>
      <use xlink:href="#DejaVuSans-50" transform="translate(179.640625 0)"/>
      <use xlink:href="#DejaVuSans-58" transform="translate(277.046875 0)"/>
      <use xlink:href="#DejaVuSans-4f" transform="translate(340.421875 0)"/>
      <use xlink:href="#DejaVuSans-44" transform="translate(368.203125 0)"/>
      <use xlink:href="#DejaVuSans-47" transform="translate(429.484375 0)"/>
      <use xlink:href="#DejaVuSans-52" transform="translate(492.96875 0)"/>
      <use xlink:href="#DejaVuSans-3" transform="translate(554.15625 0)"/>
      <use xlink:href="#DejaVuSans-47" transform="translate(585.9375 0)"/>
      <use xlink:href="#DejaVuSans-48" transform="translate(649.421875 0)"/>
      <use xlink:href="#DejaVuSans-3" transform="translate(710.953125 0)"/>
      <use xlink:href="#DejaVuSans-4f" transform="translate(742.734375 0)"/>
      <use xlink:href="#DejaVuSans-44" transform="translate(770.515625 0)"/>
      <use xlink:href="#DejaVuSans-3" transform="translate(831.796875 0)"/>
      <use xlink:href="#DejaVuSans-48" transform="translate(863.578125 0)"/>
      <use xlink:href="#DejaVuSans-56" transform="translate(925.109375 0)"/>
      <use xlink:href="#DejaVuSans-57" transform="translate(977.203125 0)"/>
      <use xlink:href="#DejaVuSans-44" transform="translate(1016.40625 0)"/>
      <use xlink:href="#DejaVuSans-46" transform="translate(1077.6875 0)"/>
      <use xlink:href="#DejaVuSans-4c" transform="translate(1132.671875 0)"/>
      <use xlink:href="#DejaVuSans-52" transform="translate(1160.453125 0)"/>
      <use xlink:href="#DejaVuSans-51" transform="translate(1221.640625 0)"/>
      <use xlink:href="#DejaVuSans-3" transform="translate(1285.015625 0)"/>
      <use xlink:href="#DejaVuSans-b" transform="translate(1316.796875 0)"/>
      <use xlink:href="#DejaVuSans-50" transform="translate(1355.8125 0)"/>
      <use xlink:href="#DejaVuSans-50" transform="translate(1453.21875 0)"/>
      <use xlink:href="#DejaVuSans-c" transform="translate(1550.625 0)"/>
     </g>
    </g>
   </g>
   <g id="line2d_27">
    <path d="M 63.880199 177.374194 
L 288.470121 28.254426 
" clip-path="url(#pe4cc41feab)" style="fill: none; stroke-dasharray: 3.33,1.44; stroke-dashoffset: 0; stroke: #9a9a9a; stroke-width: 0.9"/>
   </g>
   <g id="patch_3">
    <path d="M 52.650703 184.830183 
L 52.650703 20.798437 
" style="fill: none; stroke: #000000; stroke-width: 0.8; stroke-linejoin: miter; stroke-linecap: square"/>
   </g>
   <g id="patch_4">
    <path d="M 52.650703 184.830183 
L 299.699617 184.830183 
" style="fill: none; stroke: #000000; stroke-width: 0.8; stroke-linejoin: miter; stroke-linecap: square"/>
   </g>
   <g id="line2d_28">
    <path d="M 63.9681 177.173275 
L 64.942411 176.188085 
L 65.425095 176.037126 
L 66.026522 175.353855 
L 66.652314 174.720545 
L 67.548902 173.979766 
L 70.172357 172.856916 
L 72.118821 171.582748 
L 72.502192 171.190613 
L 72.804447 171.018088 
L 73.663408 170.723718 
L 75.73355 169.445595 
L 76.338369 168.776342 
L 77.897761 167.832128 
L 78.721253 167.497142 
L 79.098455 166.956564 
L 80.388593 166.255681 
L 81.020862 165.532874 
L 81.976359 165.036146 
L 83.137267 164.088337 
L 84.675686 163.125791 
L 84.889732 162.978426 
L 85.858184 162.086688 
L 87.450577 161.335845 
L 88.095491 160.788079 
L 88.750892 160.482925 
L 90.645232 159.163828 
L 92.218503 158.41622 
L 94.423426 157.054711 
L 95.447394 156.008419 
L 95.792829 155.952349 
L 96.558131 155.469998 
L 96.961755 154.970754 
L 97.190195 154.970754 
L 98.53883 154.284608 
L 99.34649 153.69982 
L 99.864231 153.353332 
L 100.786418 152.472017 
L 102.022787 151.60508 
L 102.895216 150.788102 
L 103.440304 150.665178 
L 106.774573 148.165004 
L 107.33282 147.930658 
L 107.932396 147.493595 
L 108.233007 146.827936 
L 109.025657 146.358525 
L 109.80453 145.818306 
L 111.092509 144.744338 
L 112.291044 144.092338 
L 113.274094 144.003559 
L 114.32582 142.919528 
L 115.46411 142.333302 
L 116.089594 141.478585 
L 116.94691 140.913566 
L 117.62462 140.130734 
L 117.886164 139.73788 
L 120.374117 137.982439 
L 120.740936 137.328642 
L 121.559288 136.892657 
L 121.862982 136.564859 
L 123.499069 135.792091 
L 124.30899 135.130746 
L 124.916894 134.880944 
L 126.498492 134.462212 
L 127.488841 133.67938 
L 128.025808 132.968793 
L 128.814139 132.459485 
L 129.957158 131.867509 
L 130.294266 131.528928 
L 132.336341 130.184672 
L 133.649919 129.35763 
L 134.706579 128.698801 
L 136.669081 127.431102 
L 138.149722 126.495873 
L 138.613797 126.076781 
L 140.234668 125.237879 
L 140.917724 124.468705 
L 142.100016 122.988225 
L 143.596078 122.084986 
L 143.936167 121.444846 
L 145.745999 120.30115 
L 146.927468 119.299786 
L 149.2096 117.64139 
L 149.986623 117.456285 
L 152.664771 116.158395 
L 153.167297 115.667418 
L 154.150141 115.191536 
L 155.415708 114.205628 
L 156.542072 113.638452 
L 157.683446 113.058697 
L 159.964961 111.894153 
L 161.010519 111.147624 
L 162.994302 110.079407 
L 163.477705 109.622575 
L 164.107918 109.281479 
L 164.386733 108.942899 
L 166.41935 107.464216 
L 166.549299 107.263656 
L 167.368062 106.755786 
L 169.511198 105.277463 
L 170.819326 104.584488 
L 173.617349 102.29386 
L 175.0947 101.305436 
L 175.630946 100.85759 
L 176.942365 100.034143 
L 177.438311 99.611816 
L 180.261932 97.596509 
L 180.715932 97.482211 
L 181.338949 96.838118 
L 181.755938 96.635761 
L 182.693752 96.055286 
L 183.392641 95.480563 
L 184.259827 94.548928 
L 184.674348 94.389343 
L 186.070378 93.320047 
L 187.360824 92.682424 
L 190.33691 90.644114 
L 190.594136 90.516877 
L 190.982955 90.130493 
L 195.743891 87.366859 
L 196.78513 87.024685 
L 197.954468 86.141932 
L 198.612645 85.502152 
L 203.867573 81.767706 
L 204.579724 81.419421 
L 204.735786 81.247615 
L 206.181678 80.220733 
L 207.713723 79.52632 
L 208.261484 79.137779 
L 213.072487 76.669235 
L 215.008567 75.07266 
L 216.636634 74.272217 
L 220.145676 72.087979 
L 223.924179 70.053623 
L 224.382291 69.879301 
L 226.588962 68.46208 
L 227.108553 68.132486 
L 230.374352 65.337222 
L 230.997163 65.059026 
L 231.965409 64.230187 
L 233.67418 63.322634 
L 236.078448 61.868393 
L 236.62662 61.691195 
L 237.883756 60.818507 
L 238.59601 60.422778 
L 239.402642 59.607238 
L 242.529033 57.426235 
L 244.212411 56.338969 
L 244.763462 56.042442 
L 245.349981 55.683734 
L 245.45793 55.470234 
L 245.945856 54.990399 
L 247.842356 53.959922 
L 248.388574 53.483681 
L 249.370288 52.974733 
L 250.779169 52.224609 
L 253.582948 49.867846 
L 254.627272 49.341286 
L 256.114698 48.073227 
L 257.945091 47.100259 
L 258.459851 46.544944 
L 259.319737 46.062593 
L 260.087096 45.273651 
L 260.956235 44.813225 
L 261.59313 43.967853 
L 263.336548 42.699795 
L 263.672319 42.567166 
L 264.619386 42.02515 
L 265.592464 41.30378 
L 266.262978 40.999705 
L 267.004737 40.148223 
L 267.369295 39.67306 
L 268.137887 39.22809 
L 268.917583 38.125727 
L 269.275355 37.934872 
L 269.703447 37.374166 
L 270.930975 37.086624 
L 271.883388 36.516932 
L 274.525348 34.804982 
L 275.215292 34.465323 
L 275.245518 34.239603 
L 276.408276 33.634688 
L 277.38413 32.953214 
L 280.925145 31.050049 
L 282.611916 30.498328 
L 283.824639 29.893413 
L 284.734798 29.599042 
L 285.982065 29.317251 
L 286.866317 28.937697 
L 288.007485 28.606664 
L 288.470121 28.254426 
L 288.470121 28.254426 
" clip-path="url(#pe4cc41feab)" style="fill: none; stroke: #1f4e79; stroke-width: 1.3; stroke-linecap: square"/>
   </g>
   <g id="text_16">
    <!-- r contra el patron = 0.8068   |   3 vecina(s) -->
    <g style="fill: #555555" transform="translate(52.650703 211.075262) scale(0.07 -0.07)">
     <defs>
      <path id="DejaVuSans-20" d="M 678 2906 
L 4684 2906 
L 4684 2381 
L 678 2381 
L 678 2906 
z
M 678 1631 
L 4684 1631 
L 4684 1100 
L 678 1100 
L 678 1631 
z
" transform="scale(0.015625)"/>
      <path id="DejaVuSans-11" d="M 684 794 
L 1344 794 
L 1344 0 
L 684 0 
L 684 794 
z
" transform="scale(0.015625)"/>
      <path id="DejaVuSans-1b" d="M 2034 2216 
Q 1584 2216 1326 1975 
Q 1069 1734 1069 1313 
Q 1069 891 1326 650 
Q 1584 409 2034 409 
Q 2484 409 2743 651 
Q 3003 894 3003 1313 
Q 3003 1734 2745 1975 
Q 2488 2216 2034 2216 
z
M 1403 2484 
Q 997 2584 770 2862 
Q 544 3141 544 3541 
Q 544 4100 942 4425 
Q 1341 4750 2034 4750 
Q 2731 4750 3128 4425 
Q 3525 4100 3525 3541 
Q 3525 3141 3298 2862 
Q 3072 2584 2669 2484 
Q 3125 2378 3379 2068 
Q 3634 1759 3634 1313 
Q 3634 634 3220 271 
Q 2806 -91 2034 -91 
Q 1263 -91 848 271 
Q 434 634 434 1313 
Q 434 1759 690 2068 
Q 947 2378 1403 2484 
z
M 1172 3481 
Q 1172 3119 1398 2916 
Q 1625 2713 2034 2713 
Q 2441 2713 2670 2916 
Q 2900 3119 2900 3481 
Q 2900 3844 2670 4047 
Q 2441 4250 2034 4250 
Q 1625 4250 1398 4047 
Q 1172 3844 1172 3481 
z
" transform="scale(0.015625)"/>
      <path id="DejaVuSans-19" d="M 2113 2584 
Q 1688 2584 1439 2293 
Q 1191 2003 1191 1497 
Q 1191 994 1439 701 
Q 1688 409 2113 409 
Q 2538 409 2786 701 
Q 3034 994 3034 1497 
Q 3034 2003 2786 2293 
Q 2538 2584 2113 2584 
z
M 3366 4563 
L 3366 3988 
Q 3128 4100 2886 4159 
Q 2644 4219 2406 4219 
Q 1781 4219 1451 3797 
Q 1122 3375 1075 2522 
Q 1259 2794 1537 2939 
Q 1816 3084 2150 3084 
Q 2853 3084 3261 2657 
Q 3669 2231 3669 1497 
Q 3669 778 3244 343 
Q 2819 -91 2113 -91 
Q 1303 -91 875 529 
Q 447 1150 447 2328 
Q 447 3434 972 4092 
Q 1497 4750 2381 4750 
Q 2619 4750 2861 4703 
Q 3103 4656 3366 4563 
z
" transform="scale(0.015625)"/>
      <path id="DejaVuSans-5f" d="M 1344 4891 
L 1344 -1509 
L 813 -1509 
L 813 4891 
L 1344 4891 
z
" transform="scale(0.015625)"/>
     </defs>
     <use xlink:href="#DejaVuSans-55"/>
     <use xlink:href="#DejaVuSans-3" transform="translate(41.109375 0)"/>
     <use xlink:href="#DejaVuSans-46" transform="translate(72.890625 0)"/>
     <use xlink:href="#DejaVuSans-52" transform="translate(127.875 0)"/>
     <use xlink:href="#DejaVuSans-51" transform="translate(189.0625 0)"/>
     <use xlink:href="#DejaVuSans-57" transform="translate(252.4375 0)"/>
     <use xlink:href="#DejaVuSans-55" transform="translate(291.640625 0)"/>
     <use xlink:href="#DejaVuSans-44" transform="translate(332.75 0)"/>
     <use xlink:href="#DejaVuSans-3" transform="translate(394.03125 0)"/>
     <use xlink:href="#DejaVuSans-48" transform="translate(425.8125 0)"/>
     <use xlink:href="#DejaVuSans-4f" transform="translate(487.34375 0)"/>
     <use xlink:href="#DejaVuSans-3" transform="translate(515.125 0)"/>
     <use xlink:href="#DejaVuSans-53" transform="translate(546.90625 0)"/>
     <use xlink:href="#DejaVuSans-44" transform="translate(610.390625 0)"/>
     <use xlink:href="#DejaVuSans-57" transform="translate(671.671875 0)"/>
     <use xlink:href="#DejaVuSans-55" transform="translate(710.875 0)"/>
     <use xlink:href="#DejaVuSans-52" transform="translate(749.78125 0)"/>
     <use xlink:href="#DejaVuSans-51" transform="translate(810.96875 0)"/>
     <use xlink:href="#DejaVuSans-3" transform="translate(874.34375 0)"/>
     <use xlink:href="#DejaVuSans-20" transform="translate(906.125 0)"/>
     <use xlink:href="#DejaVuSans-3" transform="translate(989.921875 0)"/>
     <use xlink:href="#DejaVuSans-13" transform="translate(1021.703125 0)"/>
     <use xlink:href="#DejaVuSans-11" transform="translate(1085.328125 0)"/>
     <use xlink:href="#DejaVuSans-1b" transform="translate(1117.109375 0)"/>
     <use xlink:href="#DejaVuSans-13" transform="translate(1180.734375 0)"/>
     <use xlink:href="#DejaVuSans-19" transform="translate(1244.359375 0)"/>
     <use xlink:href="#DejaVuSans-1b" transform="translate(1307.984375 0)"/>
     <use xlink:href="#DejaVuSans-3" transform="translate(1371.609375 0)"/>
     <use xlink:href="#DejaVuSans-3" transform="translate(1403.390625 0)"/>
     <use xlink:href="#DejaVuSans-3" transform="translate(1435.171875 0)"/>
     <use xlink:href="#DejaVuSans-5f" transform="translate(1466.953125 0)"/>
     <use xlink:href="#DejaVuSans-3" transform="translate(1500.640625 0)"/>
     <use xlink:href="#DejaVuSans-3" transform="translate(1532.421875 0)"/>
     <use xlink:href="#DejaVuSans-3" transform="translate(1564.203125 0)"/>
     <use xlink:href="#DejaVuSans-16" transform="translate(1595.984375 0)"/>
     <use xlink:href="#DejaVuSans-3" transform="translate(1659.609375 0)"/>
     <use xlink:href="#DejaVuSans-59" transform="translate(1691.390625 0)"/>
     <use xlink:href="#DejaVuSans-48" transform="translate(1750.578125 0)"/>
     <use xlink:href="#DejaVuSans-46" transform="translate(1812.109375 0)"/>
     <use xlink:href="#DejaVuSans-4c" transform="translate(1867.09375 0)"/>
     <use xlink:href="#DejaVuSans-51" transform="translate(1894.875 0)"/>
     <use xlink:href="#DejaVuSans-44" transform="translate(1958.25 0)"/>
     <use xlink:href="#DejaVuSans-b" transform="translate(2019.53125 0)"/>
     <use xlink:href="#DejaVuSans-56" transform="translate(2058.546875 0)"/>
     <use xlink:href="#DejaVuSans-c" transform="translate(2110.640625 0)"/>
    </g>
   </g>
   <g id="text_17">
    <!-- Doble masa  21205580 -->
    <g transform="translate(117.805629 14.798437) scale(0.1 -0.1)">
     <defs>
      <path id="DejaVuSans-27" d="M 1259 4147 
L 1259 519 
L 2022 519 
Q 2988 519 3436 956 
Q 3884 1394 3884 2338 
Q 3884 3275 3436 3711 
Q 2988 4147 2022 4147 
L 1259 4147 
z
M 628 4666 
L 1925 4666 
Q 3281 4666 3915 4102 
Q 4550 3538 4550 2338 
Q 4550 1131 3912 565 
Q 3275 0 1925 0 
L 628 0 
L 628 4666 
z
" transform="scale(0.015625)"/>
      <path id="DejaVuSans-45" d="M 3116 1747 
Q 3116 2381 2855 2742 
Q 2594 3103 2138 3103 
Q 1681 3103 1420 2742 
Q 1159 2381 1159 1747 
Q 1159 1113 1420 752 
Q 1681 391 2138 391 
Q 2594 391 2855 752 
Q 3116 1113 3116 1747 
z
M 1159 2969 
Q 1341 3281 1617 3432 
Q 1894 3584 2278 3584 
Q 2916 3584 3314 3078 
Q 3713 2572 3713 1747 
Q 3713 922 3314 415 
Q 2916 -91 2278 -91 
Q 1894 -91 1617 61 
Q 1341 213 1159 525 
L 1159 0 
L 581 0 
L 581 4863 
L 1159 4863 
L 1159 2969 
z
" transform="scale(0.015625)"/>
     </defs>
     <use xlink:href="#DejaVuSans-27"/>
     <use xlink:href="#DejaVuSans-52" transform="translate(77 0)"/>
     <use xlink:href="#DejaVuSans-45" transform="translate(138.1875 0)"/>
     <use xlink:href="#DejaVuSans-4f" transform="translate(201.671875 0)"/>
     <use xlink:href="#DejaVuSans-48" transform="translate(229.453125 0)"/>
     <use xlink:href="#DejaVuSans-3" transform="translate(290.984375 0)"/>
     <use xlink:href="#DejaVuSans-50" transform="translate(322.765625 0)"/>
     <use xlink:href="#DejaVuSans-44" transform="translate(420.171875 0)"/>
     <use xlink:href="#DejaVuSans-56" transform="translate(481.453125 0)"/>
     <use xlink:href="#DejaVuSans-44" transform="translate(533.546875 0)"/>
     <use xlink:href="#DejaVuSans-3" transform="translate(594.828125 0)"/>
     <use xlink:href="#DejaVuSans-3" transform="translate(626.609375 0)"/>
     <use xlink:href="#DejaVuSans-15" transform="translate(658.390625 0)"/>
     <use xlink:href="#DejaVuSans-14" transform="translate(722.015625 0)"/>
     <use xlink:href="#DejaVuSans-15" transform="translate(785.640625 0)"/>
     <use xlink:href="#DejaVuSans-13" transform="translate(849.265625 0)"/>
     <use xlink:href="#DejaVuSans-18" transform="translate(912.890625 0)"/>
     <use xlink:href="#DejaVuSans-18" transform="translate(976.515625 0)"/>
     <use xlink:href="#DejaVuSans-1b" transform="translate(1040.140625 0)"/>
     <use xlink:href="#DejaVuSans-13" transform="translate(1103.765625 0)"/>
    </g>
   </g>
  </g>
 </g>
 <defs>
  <clipPath id="pe4cc41feab">
   <rect x="52.650703" y="20.798437" width="247.048914" height="164.031745"/>
  </clipPath>
 </defs>
</svg>
