<?xml version="1.0" encoding="utf-8" standalone="no"?>
<!DOCTYPE svg PUBLIC "-//W3C//DTD SVG 1.1//EN"
  "http://www.w3.org/Graphics/SVG/1.1/DTD/svg11.dtd">
<svg xmlns:xlink="http://www.w3.org/1999/xlink" width="306.942117pt" height="221.528685pt" viewBox="0 0 306.942117 221.528685" xmlns="http://www.w3.org/2000/svg" version="1.1">
 <metadata>
  <rdf:RDF xmlns:dc="http://purl.org/dc/elements/1.1/" xmlns:cc="http://creativecommons.org/ns#" xmlns:rdf="http://www.w3.org/1999/02/22-rdf-syntax-ns#">
   <cc:Work>
    <dc:type rdf:resource="http://purl.org/dc/dcmitype/StillImage"/>
    <dc:date>2026-08-08T15:13:37.232247</dc:date>
    <dc:format>image/svg+xml</dc:format>
    <dc:creator>
     <cc:Agent>
      <dc:title>Matplotlib v3.11.1, https://matplotlib.org/</dc:title>
     </cc:Agent>
    </dc:creator>
   </cc:Work>
  </rdf:RDF>
 </metadata>
 <defs>
  <style type="text/css">*{stroke-linejoin: round; stroke-linecap: butt}</style>
 </defs>
 <g id="figure_1">
  <g id="patch_1">
   <path d="M 0 221.528685 
L 306.942117 221.528685 
L 306.942117 0 
L 0 0 
z
" style="fill: #ffffff"/>
  </g>
  <g id="axes_1">
   <g id="patch_2">
    <path d="M 45.013203 186.327982 
L 299.742117 186.327982 
L 299.742117 20.798437 
L 45.013203 20.798437 
z
" style="fill: #ffffff"/>
   </g>
   <g id="matplotlib.axis_1">
    <g id="xtick_1">
     <g id="line2d_1">
      <path d="M 50.949954 186.327982 
L 50.949954 20.798437 
" clip-path="url(#p0963b5bfe7)" style="fill: none; stroke: #9a9a9a; stroke-opacity: 0.5; stroke-width: 0.4; stroke-linecap: square"/>
     </g>
     <g id="line2d_2">
      <defs>
       <path id="m0ceace3a87" d="M 0 0 
L 0 3.5 
" style="stroke: #000000; stroke-width: 0.8"/>
      </defs>
      <g>
       <use xlink:href="#m0ceace3a87" x="50.949954" y="186.327982" style="stroke: #000000; stroke-width: 0.8"/>
      </g>
     </g>
     <g id="text_1">
      <!-- 10 -->
      <g transform="translate(45.859954 199.406107) scale(0.08 -0.08)">
       <defs>
        <path id="DejaVuSans-14" d="M 794 531 
L 1825 531 
L 1825 4091 
L 703 3866 
L 703 4441 
L 1819 4666 
L 2450 4666 
L 2450 531 
L 3481 531 
L 3481 0 
L 794 0 
L 794 531 
z
" transform="scale(0.015625)"/>
        <path id="DejaVuSans-13" d="M 2034 4250 
Q 1547 4250 1301 3770 
Q 1056 3291 1056 2328 
Q 1056 1369 1301 889 
Q 1547 409 2034 409 
Q 2525 409 2770 889 
Q 3016 1369 3016 2328 
Q 3016 3291 2770 3770 
Q 2525 4250 2034 4250 
z
M 2034 4750 
Q 2819 4750 3233 4129 
Q 3647 3509 3647 2328 
Q 3647 1150 3233 529 
Q 2819 -91 2034 -91 
Q 1250 -91 836 529 
Q 422 1150 422 2328 
Q 422 3509 836 4129 
Q 1250 4750 2034 4750 
z
" transform="scale(0.015625)"/>
       </defs>
       <use xlink:href="#DejaVuSans-14"/>
       <use xlink:href="#DejaVuSans-13" transform="translate(63.625 0)"/>
      </g>
     </g>
    </g>
    <g id="xtick_2">
     <g id="line2d_3">
      <path d="M 83.005842 186.327982 
L 83.005842 20.798437 
" clip-path="url(#p0963b5bfe7)" style="fill: none; stroke: #9a9a9a; stroke-opacity: 0.5; stroke-width: 0.4; stroke-linecap: square"/>
     </g>
     <g id="line2d_4">
      <g>
       <use xlink:href="#m0ceace3a87" x="83.005842" y="186.327982" style="stroke: #000000; stroke-width: 0.8"/>
      </g>
     </g>
     <g id="text_2">
      <!-- 20 -->
      <g transform="translate(77.915842 199.406107) scale(0.08 -0.08)">
       <defs>
        <path id="DejaVuSans-15" d="M 1228 531 
L 3431 531 
L 3431 0 
L 469 0 
L 469 531 
Q 828 903 1448 1529 
Q 2069 2156 2228 2338 
Q 2531 2678 2651 2914 
Q 2772 3150 2772 3378 
Q 2772 3750 2511 3984 
Q 2250 4219 1831 4219 
Q 1534 4219 1204 4116 
Q 875 4013 500 3803 
L 500 4441 
Q 881 4594 1212 4672 
Q 1544 4750 1819 4750 
Q 2544 4750 2975 4387 
Q 3406 4025 3406 3419 
Q 3406 3131 3298 2873 
Q 3191 2616 2906 2266 
Q 2828 2175 2409 1742 
Q 1991 1309 1228 531 
z
" transform="scale(0.015625)"/>
       </defs>
       <use xlink:href="#DejaVuSans-15"/>
       <use xlink:href="#DejaVuSans-13" transform="translate(63.625 0)"/>
      </g>
     </g>
    </g>
    <g id="xtick_3">
     <g id="line2d_5">
      <path d="M 115.061731 186.327982 
L 115.061731 20.798437 
" clip-path="url(#p0963b5bfe7)" style="fill: none; stroke: #9a9a9a; stroke-opacity: 0.5; stroke-width: 0.4; stroke-linecap: square"/>
     </g>
     <g id="line2d_6">
      <g>
       <use xlink:href="#m0ceace3a87" x="115.061731" y="186.327982" style="stroke: #000000; stroke-width: 0.8"/>
      </g>
     </g>
     <g id="text_3">
      <!-- 30 -->
      <g transform="translate(109.971731 199.406107) scale(0.08 -0.08)">
       <defs>
        <path id="DejaVuSans-16" d="M 2597 2516 
Q 3050 2419 3304 2112 
Q 3559 1806 3559 1356 
Q 3559 666 3084 287 
Q 2609 -91 1734 -91 
Q 1441 -91 1130 -33 
Q 819 25 488 141 
L 488 750 
Q 750 597 1062 519 
Q 1375 441 1716 441 
Q 2309 441 2620 675 
Q 2931 909 2931 1356 
Q 2931 1769 2642 2001 
Q 2353 2234 1838 2234 
L 1294 2234 
L 1294 2753 
L 1863 2753 
Q 2328 2753 2575 2939 
Q 2822 3125 2822 3475 
Q 2822 3834 2567 4026 
Q 2313 4219 1838 4219 
Q 1578 4219 1281 4162 
Q 984 4106 628 3988 
L 628 4550 
Q 988 4650 1302 4700 
Q 1616 4750 1894 4750 
Q 2613 4750 3031 4423 
Q 3450 4097 3450 3541 
Q 3450 3153 3228 2886 
Q 3006 2619 2597 2516 
z
" transform="scale(0.015625)"/>
       </defs>
       <use xlink:href="#DejaVuSans-16"/>
       <use xlink:href="#DejaVuSans-13" transform="translate(63.625 0)"/>
      </g>
     </g>
    </g>
    <g id="xtick_4">
     <g id="line2d_7">
      <path d="M 147.11762 186.327982 
L 147.11762 20.798437 
" clip-path="url(#p0963b5bfe7)" style="fill: none; stroke: #9a9a9a; stroke-opacity: 0.5; stroke-width: 0.4; stroke-linecap: square"/>
     </g>
     <g id="line2d_8">
      <g>
       <use xlink:href="#m0ceace3a87" x="147.11762" y="186.327982" style="stroke: #000000; stroke-width: 0.8"/>
      </g>
     </g>
     <g id="text_4">
      <!-- 40 -->
      <g transform="translate(142.02762 199.406107) scale(0.08 -0.08)">
       <defs>
        <path id="DejaVuSans-17" d="M 2419 4116 
L 825 1625 
L 2419 1625 
L 2419 4116 
z
M 2253 4666 
L 3047 4666 
L 3047 1625 
L 3713 1625 
L 3713 1100 
L 3047 1100 
L 3047 0 
L 2419 0 
L 2419 1100 
L 313 1100 
L 313 1709 
L 2253 4666 
z
" transform="scale(0.015625)"/>
       </defs>
       <use xlink:href="#DejaVuSans-17"/>
       <use xlink:href="#DejaVuSans-13" transform="translate(63.625 0)"/>
      </g>
     </g>
    </g>
    <g id="xtick_5">
     <g id="line2d_9">
      <path d="M 179.173509 186.327982 
L 179.173509 20.798437 
" clip-path="url(#p0963b5bfe7)" style="fill: none; stroke: #9a9a9a; stroke-opacity: 0.5; stroke-width: 0.4; stroke-linecap: square"/>
     </g>
     <g id="line2d_10">
      <g>
       <use xlink:href="#m0ceace3a87" x="179.173509" y="186.327982" style="stroke: #000000; stroke-width: 0.8"/>
      </g>
     </g>
     <g id="text_5">
      <!-- 50 -->
      <g transform="translate(174.083509 199.406107) scale(0.08 -0.08)">
       <defs>
        <path id="DejaVuSans-18" d="M 691 4666 
L 3169 4666 
L 3169 4134 
L 1269 4134 
L 1269 2991 
Q 1406 3038 1543 3061 
Q 1681 3084 1819 3084 
Q 2600 3084 3056 2656 
Q 3513 2228 3513 1497 
Q 3513 744 3044 326 
Q 2575 -91 1722 -91 
Q 1428 -91 1123 -41 
Q 819 9 494 109 
L 494 744 
Q 775 591 1075 516 
Q 1375 441 1709 441 
Q 2250 441 2565 725 
Q 2881 1009 2881 1497 
Q 2881 1984 2565 2268 
Q 2250 2553 1709 2553 
Q 1456 2553 1204 2497 
Q 953 2441 691 2322 
L 691 4666 
z
" transform="scale(0.015625)"/>
       </defs>
       <use xlink:href="#DejaVuSans-18"/>
       <use xlink:href="#DejaVuSans-13" transform="translate(63.625 0)"/>
      </g>
     </g>
    </g>
    <g id="xtick_6">
     <g id="line2d_11">
      <path d="M 211.229397 186.327982 
L 211.229397 20.798437 
" clip-path="url(#p0963b5bfe7)" style="fill: none; stroke: #9a9a9a; stroke-opacity: 0.5; stroke-width: 0.4; stroke-linecap: square"/>
     </g>
     <g id="line2d_12">
      <g>
       <use xlink:href="#m0ceace3a87" x="211.229397" y="186.327982" style="stroke: #000000; stroke-width: 0.8"/>
      </g>
     </g>
     <g id="text_6">
      <!-- 60 -->
      <g transform="translate(206.139397 199.406107) scale(0.08 -0.08)">
       <defs>
        <path id="DejaVuSans-19" d="M 2113 2584 
Q 1688 2584 1439 2293 
Q 1191 2003 1191 1497 
Q 1191 994 1439 701 
Q 1688 409 2113 409 
Q 2538 409 2786 701 
Q 3034 994 3034 1497 
Q 3034 2003 2786 2293 
Q 2538 2584 2113 2584 
z
M 3366 4563 
L 3366 3988 
Q 3128 4100 2886 4159 
Q 2644 4219 2406 4219 
Q 1781 4219 1451 3797 
Q 1122 3375 1075 2522 
Q 1259 2794 1537 2939 
Q 1816 3084 2150 3084 
Q 2853 3084 3261 2657 
Q 3669 2231 3669 1497 
Q 3669 778 3244 343 
Q 2819 -91 2113 -91 
Q 1303 -91 875 529 
Q 447 1150 447 2328 
Q 447 3434 972 4092 
Q 1497 4750 2381 4750 
Q 2619 4750 2861 4703 
Q 3103 4656 3366 4563 
z
" transform="scale(0.015625)"/>
       </defs>
       <use xlink:href="#DejaVuSans-19"/>
       <use xlink:href="#DejaVuSans-13" transform="translate(63.625 0)"/>
      </g>
     </g>
    </g>
    <g id="xtick_7">
     <g id="line2d_13">
      <path d="M 243.285286 186.327982 
L 243.285286 20.798437 
" clip-path="url(#p0963b5bfe7)" style="fill: none; stroke: #9a9a9a; stroke-opacity: 0.5; stroke-width: 0.4; stroke-linecap: square"/>
     </g>
     <g id="line2d_14">
      <g>
       <use xlink:href="#m0ceace3a87" x="243.285286" y="186.327982" style="stroke: #000000; stroke-width: 0.8"/>
      </g>
     </g>
     <g id="text_7">
      <!-- 70 -->
      <g transform="translate(238.195286 199.406107) scale(0.08 -0.08)">
       <defs>
        <path id="DejaVuSans-1a" d="M 525 4666 
L 3525 4666 
L 3525 4397 
L 1831 0 
L 1172 0 
L 2766 4134 
L 525 4134 
L 525 4666 
z
" transform="scale(0.015625)"/>
       </defs>
       <use xlink:href="#DejaVuSans-1a"/>
       <use xlink:href="#DejaVuSans-13" transform="translate(63.625 0)"/>
      </g>
     </g>
    </g>
    <g id="xtick_8">
     <g id="line2d_15">
      <path d="M 275.341175 186.327982 
L 275.341175 20.798437 
" clip-path="url(#p0963b5bfe7)" style="fill: none; stroke: #9a9a9a; stroke-opacity: 0.5; stroke-width: 0.4; stroke-linecap: square"/>
     </g>
     <g id="line2d_16">
      <g>
       <use xlink:href="#m0ceace3a87" x="275.341175" y="186.327982" style="stroke: #000000; stroke-width: 0.8"/>
      </g>
     </g>
     <g id="text_8">
      <!-- 80 -->
      <g transform="translate(270.251175 199.406107) scale(0.08 -0.08)">
       <defs>
        <path id="DejaVuSans-1b" d="M 2034 2216 
Q 1584 2216 1326 1975 
Q 1069 1734 1069 1313 
Q 1069 891 1326 650 
Q 1584 409 2034 409 
Q 2484 409 2743 651 
Q 3003 894 3003 1313 
Q 3003 1734 2745 1975 
Q 2488 2216 2034 2216 
z
M 1403 2484 
Q 997 2584 770 2862 
Q 544 3141 544 3541 
Q 544 4100 942 4425 
Q 1341 4750 2034 4750 
Q 2731 4750 3128 4425 
Q 3525 4100 3525 3541 
Q 3525 3141 3298 2862 
Q 3072 2584 2669 2484 
Q 3125 2378 3379 2068 
Q 3634 1759 3634 1313 
Q 3634 634 3220 271 
Q 2806 -91 2034 -91 
Q 1263 -91 848 271 
Q 434 634 434 1313 
Q 434 1759 690 2068 
Q 947 2378 1403 2484 
z
M 1172 3481 
Q 1172 3119 1398 2916 
Q 1625 2713 2034 2713 
Q 2441 2713 2670 2916 
Q 2900 3119 2900 3481 
Q 2900 3844 2670 4047 
Q 2441 4250 2034 4250 
Q 1625 4250 1398 4047 
Q 1172 3844 1172 3481 
z
" transform="scale(0.015625)"/>
       </defs>
       <use xlink:href="#DejaVuSans-1b"/>
       <use xlink:href="#DejaVuSans-13" transform="translate(63.625 0)"/>
      </g>
     </g>
    </g>
    <g id="text_9">
     <!-- Pmax 24 h (mm) -->
     <g transform="translate(134.713363 212.166575) scale(0.09 -0.09)">
      <defs>
       <path id="DejaVuSans-33" d="M 1259 4147 
L 1259 2394 
L 2053 2394 
Q 2494 2394 2734 2622 
Q 2975 2850 2975 3272 
Q 2975 3691 2734 3919 
Q 2494 4147 2053 4147 
L 1259 4147 
z
M 628 4666 
L 2053 4666 
Q 2838 4666 3239 4311 
Q 3641 3956 3641 3272 
Q 3641 2581 3239 2228 
Q 2838 1875 2053 1875 
L 1259 1875 
L 1259 0 
L 628 0 
L 628 4666 
z
" transform="scale(0.015625)"/>
       <path id="DejaVuSans-50" d="M 3328 2828 
Q 3544 3216 3844 3400 
Q 4144 3584 4550 3584 
Q 5097 3584 5394 3201 
Q 5691 2819 5691 2113 
L 5691 0 
L 5113 0 
L 5113 2094 
Q 5113 2597 4934 2840 
Q 4756 3084 4391 3084 
Q 3944 3084 3684 2787 
Q 3425 2491 3425 1978 
L 3425 0 
L 2847 0 
L 2847 2094 
Q 2847 2600 2669 2842 
Q 2491 3084 2119 3084 
Q 1678 3084 1418 2786 
Q 1159 2488 1159 1978 
L 1159 0 
L 581 0 
L 581 3500 
L 1159 3500 
L 1159 2956 
Q 1356 3278 1631 3431 
Q 1906 3584 2284 3584 
Q 2666 3584 2933 3390 
Q 3200 3197 3328 2828 
z
" transform="scale(0.015625)"/>
       <path id="DejaVuSans-44" d="M 2194 1759 
Q 1497 1759 1228 1600 
Q 959 1441 959 1056 
Q 959 750 1161 570 
Q 1363 391 1709 391 
Q 2188 391 2477 730 
Q 2766 1069 2766 1631 
L 2766 1759 
L 2194 1759 
z
M 3341 1997 
L 3341 0 
L 2766 0 
L 2766 531 
Q 2569 213 2275 61 
Q 1981 -91 1556 -91 
Q 1019 -91 701 211 
Q 384 513 384 1019 
Q 384 1609 779 1909 
Q 1175 2209 1959 2209 
L 2766 2209 
L 2766 2266 
Q 2766 2663 2505 2880 
Q 2244 3097 1772 3097 
Q 1472 3097 1187 3025 
Q 903 2953 641 2809 
L 641 3341 
Q 956 3463 1253 3523 
Q 1550 3584 1831 3584 
Q 2591 3584 2966 3190 
Q 3341 2797 3341 1997 
z
" transform="scale(0.015625)"/>
       <path id="DejaVuSans-5b" d="M 3513 3500 
L 2247 1797 
L 3578 0 
L 2900 0 
L 1881 1375 
L 863 0 
L 184 0 
L 1544 1831 
L 300 3500 
L 978 3500 
L 1906 2253 
L 2834 3500 
L 3513 3500 
z
" transform="scale(0.015625)"/>
       <path id="DejaVuSans-3" transform="scale(0.015625)"/>
       <path id="DejaVuSans-4b" d="M 3513 2113 
L 3513 0 
L 2938 0 
L 2938 2094 
Q 2938 2591 2744 2837 
Q 2550 3084 2163 3084 
Q 1697 3084 1428 2787 
Q 1159 2491 1159 1978 
L 1159 0 
L 581 0 
L 581 4863 
L 1159 4863 
L 1159 2956 
Q 1366 3272 1645 3428 
Q 1925 3584 2291 3584 
Q 2894 3584 3203 3211 
Q 3513 2838 3513 2113 
z
" transform="scale(0.015625)"/>
       <path id="DejaVuSans-b" d="M 1984 4856 
Q 1566 4138 1362 3434 
Q 1159 2731 1159 2009 
Q 1159 1288 1364 580 
Q 1569 -128 1984 -844 
L 1484 -844 
Q 1016 -109 783 600 
Q 550 1309 550 2009 
Q 550 2706 781 3412 
Q 1013 4119 1484 4856 
L 1984 4856 
z
" transform="scale(0.015625)"/>
       <path id="DejaVuSans-c" d="M 513 4856 
L 1013 4856 
Q 1481 4119 1714 3412 
Q 1947 2706 1947 2009 
Q 1947 1309 1714 600 
Q 1481 -109 1013 -844 
L 513 -844 
Q 928 -128 1133 580 
Q 1338 1288 1338 2009 
Q 1338 2731 1133 3434 
Q 928 4138 513 4856 
z
" transform="scale(0.015625)"/>
      </defs>
      <use xlink:href="#DejaVuSans-33"/>
      <use xlink:href="#DejaVuSans-50" transform="translate(60.296875 0)"/>
      <use xlink:href="#DejaVuSans-44" transform="translate(157.703125 0)"/>
      <use xlink:href="#DejaVuSans-5b" transform="translate(218.984375 0)"/>
      <use xlink:href="#DejaVuSans-3" transform="translate(278.171875 0)"/>
      <use xlink:href="#DejaVuSans-15" transform="translate(309.953125 0)"/>
      <use xlink:href="#DejaVuSans-17" transform="translate(373.578125 0)"/>
      <use xlink:href="#DejaVuSans-3" transform="translate(437.203125 0)"/>
      <use xlink:href="#DejaVuSans-4b" transform="translate(468.984375 0)"/>
      <use xlink:href="#DejaVuSans-3" transform="translate(532.359375 0)"/>
      <use xlink:href="#DejaVuSans-b" transform="translate(564.140625 0)"/>
      <use xlink:href="#DejaVuSans-50" transform="translate(603.15625 0)"/>
      <use xlink:href="#DejaVuSans-50" transform="translate(700.5625 0)"/>
      <use xlink:href="#DejaVuSans-c" transform="translate(797.96875 0)"/>
     </g>
    </g>
   </g>
   <g id="matplotlib.axis_2">
    <g id="ytick_1">
     <g id="line2d_17">
      <path d="M 45.013203 186.327982 
L 299.742117 186.327982 
" clip-path="url(#p0963b5bfe7)" style="fill: none; stroke: #9a9a9a; stroke-opacity: 0.5; stroke-width: 0.4; stroke-linecap: square"/>
     </g>
     <g id="line2d_18">
      <defs>
       <path id="m7eb72486fb" d="M 0 0 
L -3.5 0 
" style="stroke: #000000; stroke-width: 0.8"/>
      </defs>
      <g>
       <use xlink:href="#m7eb72486fb" x="45.013203" y="186.327982" style="stroke: #000000; stroke-width: 0.8"/>
      </g>
     </g>
     <g id="text_10">
      <!-- 0.00 -->
      <g transform="translate(20.200703 189.367044) scale(0.08 -0.08)">
       <defs>
        <path id="DejaVuSans-11" d="M 684 794 
L 1344 794 
L 1344 0 
L 684 0 
L 684 794 
z
" transform="scale(0.015625)"/>
       </defs>
       <use xlink:href="#DejaVuSans-13"/>
       <use xlink:href="#DejaVuSans-11" transform="translate(63.625 0)"/>
       <use xlink:href="#DejaVuSans-13" transform="translate(95.40625 0)"/>
       <use xlink:href="#DejaVuSans-13" transform="translate(159.03125 0)"/>
      </g>
     </g>
    </g>
    <g id="ytick_2">
     <g id="line2d_19">
      <path d="M 45.013203 162.47915 
L 299.742117 162.47915 
" clip-path="url(#p0963b5bfe7)" style="fill: none; stroke: #9a9a9a; stroke-opacity: 0.5; stroke-width: 0.4; stroke-linecap: square"/>
     </g>
     <g id="line2d_20">
      <g>
       <use xlink:href="#m7eb72486fb" x="45.013203" y="162.47915" style="stroke: #000000; stroke-width: 0.8"/>
      </g>
     </g>
     <g id="text_11">
      <!-- 0.01 -->
      <g transform="translate(20.200703 165.518212) scale(0.08 -0.08)">
       <use xlink:href="#DejaVuSans-13"/>
       <use xlink:href="#DejaVuSans-11" transform="translate(63.625 0)"/>
       <use xlink:href="#DejaVuSans-13" transform="translate(95.40625 0)"/>
       <use xlink:href="#DejaVuSans-14" transform="translate(159.03125 0)"/>
      </g>
     </g>
    </g>
    <g id="ytick_3">
     <g id="line2d_21">
      <path d="M 45.013203 138.630318 
L 299.742117 138.630318 
" clip-path="url(#p0963b5bfe7)" style="fill: none; stroke: #9a9a9a; stroke-opacity: 0.5; stroke-width: 0.4; stroke-linecap: square"/>
     </g>
     <g id="line2d_22">
      <g>
       <use xlink:href="#m7eb72486fb" x="45.013203" y="138.630318" style="stroke: #000000; stroke-width: 0.8"/>
      </g>
     </g>
     <g id="text_12">
      <!-- 0.02 -->
      <g transform="translate(20.200703 141.66938) scale(0.08 -0.08)">
       <use xlink:href="#DejaVuSans-13"/>
       <use xlink:href="#DejaVuSans-11" transform="translate(63.625 0)"/>
       <use xlink:href="#DejaVuSans-13" transform="translate(95.40625 0)"/>
       <use xlink:href="#DejaVuSans-15" transform="translate(159.03125 0)"/>
      </g>
     </g>
    </g>
    <g id="ytick_4">
     <g id="line2d_23">
      <path d="M 45.013203 114.781486 
L 299.742117 114.781486 
" clip-path="url(#p0963b5bfe7)" style="fill: none; stroke: #9a9a9a; stroke-opacity: 0.5; stroke-width: 0.4; stroke-linecap: square"/>
     </g>
     <g id="line2d_24">
      <g>
       <use xlink:href="#m7eb72486fb" x="45.013203" y="114.781486" style="stroke: #000000; stroke-width: 0.8"/>
      </g>
     </g>
     <g id="text_13">
      <!-- 0.03 -->
      <g transform="translate(20.200703 117.820548) scale(0.08 -0.08)">
       <use xlink:href="#DejaVuSans-13"/>
       <use xlink:href="#DejaVuSans-11" transform="translate(63.625 0)"/>
       <use xlink:href="#DejaVuSans-13" transform="translate(95.40625 0)"/>
       <use xlink:href="#DejaVuSans-16" transform="translate(159.03125 0)"/>
      </g>
     </g>
    </g>
    <g id="ytick_5">
     <g id="line2d_25">
      <path d="M 45.013203 90.932654 
L 299.742117 90.932654 
" clip-path="url(#p0963b5bfe7)" style="fill: none; stroke: #9a9a9a; stroke-opacity: 0.5; stroke-width: 0.4; stroke-linecap: square"/>
     </g>
     <g id="line2d_26">
      <g>
       <use xlink:href="#m7eb72486fb" x="45.013203" y="90.932654" style="stroke: #000000; stroke-width: 0.8"/>
      </g>
     </g>
     <g id="text_14">
      <!-- 0.04 -->
      <g transform="translate(20.200703 93.971716) scale(0.08 -0.08)">
       <use xlink:href="#DejaVuSans-13"/>
       <use xlink:href="#DejaVuSans-11" transform="translate(63.625 0)"/>
       <use xlink:href="#DejaVuSans-13" transform="translate(95.40625 0)"/>
       <use xlink:href="#DejaVuSans-17" transform="translate(159.03125 0)"/>
      </g>
     </g>
    </g>
    <g id="ytick_6">
     <g id="line2d_27">
      <path d="M 45.013203 67.083822 
L 299.742117 67.083822 
" clip-path="url(#p0963b5bfe7)" style="fill: none; stroke: #9a9a9a; stroke-opacity: 0.5; stroke-width: 0.4; stroke-linecap: square"/>
     </g>
     <g id="line2d_28">
      <g>
       <use xlink:href="#m7eb72486fb" x="45.013203" y="67.083822" style="stroke: #000000; stroke-width: 0.8"/>
      </g>
     </g>
     <g id="text_15">
      <!-- 0.05 -->
      <g transform="translate(20.200703 70.122884) scale(0.08 -0.08)">
       <use xlink:href="#DejaVuSans-13"/>
       <use xlink:href="#DejaVuSans-11" transform="translate(63.625 0)"/>
       <use xlink:href="#DejaVuSans-13" transform="translate(95.40625 0)"/>
       <use xlink:href="#DejaVuSans-18" transform="translate(159.03125 0)"/>
      </g>
     </g>
    </g>
    <g id="ytick_7">
     <g id="line2d_29">
      <path d="M 45.013203 43.23499 
L 299.742117 43.23499 
" clip-path="url(#p0963b5bfe7)" style="fill: none; stroke: #9a9a9a; stroke-opacity: 0.5; stroke-width: 0.4; stroke-linecap: square"/>
     </g>
     <g id="line2d_30">
      <g>
       <use xlink:href="#m7eb72486fb" x="45.013203" y="43.23499" style="stroke: #000000; stroke-width: 0.8"/>
      </g>
     </g>
     <g id="text_16">
      <!-- 0.06 -->
      <g transform="translate(20.200703 46.274052) scale(0.08 -0.08)">
       <use xlink:href="#DejaVuSans-13"/>
       <use xlink:href="#DejaVuSans-11" transform="translate(63.625 0)"/>
       <use xlink:href="#DejaVuSans-13" transform="translate(95.40625 0)"/>
       <use xlink:href="#DejaVuSans-19" transform="translate(159.03125 0)"/>
      </g>
     </g>
    </g>
    <g id="text_17">
     <!-- densidad -->
     <g transform="translate(14.038594 124.106413) rotate(-90) scale(0.09 -0.09)">
      <defs>
       <path id="DejaVuSans-47" d="M 2906 2969 
L 2906 4863 
L 3481 4863 
L 3481 0 
L 2906 0 
L 2906 525 
Q 2725 213 2448 61 
Q 2172 -91 1784 -91 
Q 1150 -91 751 415 
Q 353 922 353 1747 
Q 353 2572 751 3078 
Q 1150 3584 1784 3584 
Q 2172 3584 2448 3432 
Q 2725 3281 2906 2969 
z
M 947 1747 
Q 947 1113 1208 752 
Q 1469 391 1925 391 
Q 2381 391 2643 752 
Q 2906 1113 2906 1747 
Q 2906 2381 2643 2742 
Q 2381 3103 1925 3103 
Q 1469 3103 1208 2742 
Q 947 2381 947 1747 
z
" transform="scale(0.015625)"/>
       <path id="DejaVuSans-48" d="M 3597 1894 
L 3597 1613 
L 953 1613 
Q 991 1019 1311 708 
Q 1631 397 2203 397 
Q 2534 397 2845 478 
Q 3156 559 3463 722 
L 3463 178 
Q 3153 47 2828 -22 
Q 2503 -91 2169 -91 
Q 1331 -91 842 396 
Q 353 884 353 1716 
Q 353 2575 817 3079 
Q 1281 3584 2069 3584 
Q 2775 3584 3186 3129 
Q 3597 2675 3597 1894 
z
M 3022 2063 
Q 3016 2534 2758 2815 
Q 2500 3097 2075 3097 
Q 1594 3097 1305 2825 
Q 1016 2553 972 2059 
L 3022 2063 
z
" transform="scale(0.015625)"/>
       <path id="DejaVuSans-51" d="M 3513 2113 
L 3513 0 
L 2938 0 
L 2938 2094 
Q 2938 2591 2744 2837 
Q 2550 3084 2163 3084 
Q 1697 3084 1428 2787 
Q 1159 2491 1159 1978 
L 1159 0 
L 581 0 
L 581 3500 
L 1159 3500 
L 1159 2956 
Q 1366 3272 1645 3428 
Q 1925 3584 2291 3584 
Q 2894 3584 3203 3211 
Q 3513 2838 3513 2113 
z
" transform="scale(0.015625)"/>
       <path id="DejaVuSans-56" d="M 2834 3397 
L 2834 2853 
Q 2591 2978 2328 3040 
Q 2066 3103 1784 3103 
Q 1356 3103 1142 2972 
Q 928 2841 928 2578 
Q 928 2378 1081 2264 
Q 1234 2150 1697 2047 
L 1894 2003 
Q 2506 1872 2764 1633 
Q 3022 1394 3022 966 
Q 3022 478 2636 193 
Q 2250 -91 1575 -91 
Q 1294 -91 989 -36 
Q 684 19 347 128 
L 347 722 
Q 666 556 975 473 
Q 1284 391 1588 391 
Q 1994 391 2212 530 
Q 2431 669 2431 922 
Q 2431 1156 2273 1281 
Q 2116 1406 1581 1522 
L 1381 1569 
Q 847 1681 609 1914 
Q 372 2147 372 2553 
Q 372 3047 722 3315 
Q 1072 3584 1716 3584 
Q 2034 3584 2315 3537 
Q 2597 3491 2834 3397 
z
" transform="scale(0.015625)"/>
       <path id="DejaVuSans-4c" d="M 603 3500 
L 1178 3500 
L 1178 0 
L 603 0 
L 603 3500 
z
M 603 4863 
L 1178 4863 
L 1178 4134 
L 603 4134 
L 603 4863 
z
" transform="scale(0.015625)"/>
      </defs>
      <use xlink:href="#DejaVuSans-47"/>
      <use xlink:href="#DejaVuSans-48" transform="translate(63.484375 0)"/>
      <use xlink:href="#DejaVuSans-51" transform="translate(125.015625 0)"/>
      <use xlink:href="#DejaVuSans-56" transform="translate(188.390625 0)"/>
      <use xlink:href="#DejaVuSans-4c" transform="translate(240.484375 0)"/>
      <use xlink:href="#DejaVuSans-47" transform="translate(268.265625 0)"/>
      <use xlink:href="#DejaVuSans-44" transform="translate(331.75 0)"/>
      <use xlink:href="#DejaVuSans-47" transform="translate(393.03125 0)"/>
     </g>
    </g>
   </g>
   <g id="patch_3">
    <path d="M 81.723607 186.327982 
L 101.170846 186.327982 
L 101.170846 166.672351 
L 81.723607 166.672351 
z
" clip-path="url(#p0963b5bfe7)" style="fill: #9a9a9a; opacity: 0.35; stroke: #ffffff; stroke-width: 0.4; stroke-linejoin: miter"/>
   </g>
   <g id="patch_4">
    <path d="M 101.170846 186.327982 
L 120.618085 186.327982 
L 120.618085 29.082935 
L 101.170846 29.082935 
z
" clip-path="url(#p0963b5bfe7)" style="fill: #9a9a9a; opacity: 0.35; stroke: #ffffff; stroke-width: 0.4; stroke-linejoin: miter"/>
   </g>
   <g id="patch_5">
    <path d="M 120.618085 186.327982 
L 140.065324 186.327982 
L 140.065324 97.877643 
L 120.618085 97.877643 
z
" clip-path="url(#p0963b5bfe7)" style="fill: #9a9a9a; opacity: 0.35; stroke: #ffffff; stroke-width: 0.4; stroke-linejoin: miter"/>
   </g>
   <g id="patch_6">
    <path d="M 140.065324 186.327982 
L 159.512564 186.327982 
L 159.512564 127.361089 
L 140.065324 127.361089 
z
" clip-path="url(#p0963b5bfe7)" style="fill: #9a9a9a; opacity: 0.35; stroke: #ffffff; stroke-width: 0.4; stroke-linejoin: miter"/>
   </g>
   <g id="patch_7">
    <path d="M 159.512564 186.327982 
L 178.959803 186.327982 
L 178.959803 127.361089 
L 159.512564 127.361089 
z
" clip-path="url(#p0963b5bfe7)" style="fill: #9a9a9a; opacity: 0.35; stroke: #ffffff; stroke-width: 0.4; stroke-linejoin: miter"/>
   </g>
   <g id="patch_8">
    <path d="M 178.959803 186.327982 
L 198.407042 186.327982 
L 198.407042 176.500166 
L 178.959803 176.500166 
z
" clip-path="url(#p0963b5bfe7)" style="fill: #9a9a9a; opacity: 0.35; stroke: #ffffff; stroke-width: 0.4; stroke-linejoin: miter"/>
   </g>
   <g id="line2d_31">
    <path d="M 56.59179 185.148478 
L 59.68974 184.60168 
L 62.78769 183.842033 
L 65.885639 182.805686 
L 68.209102 181.802084 
L 70.532564 180.565325 
L 72.856026 179.057224 
L 75.179488 177.237738 
L 77.502951 175.066116 
L 79.826413 172.502378 
L 82.149875 169.509111 
L 84.473337 166.053559 
L 86.7968 162.109934 
L 89.120262 157.661876 
L 91.443724 152.704922 
L 93.767187 147.248867 
L 96.090649 141.319832 
L 99.188599 132.757596 
L 103.061036 121.230502 
L 113.90386 88.148889 
L 116.227322 81.84721 
L 118.550784 76.150542 
L 120.874246 71.198132 
L 122.423221 68.372663 
L 123.972196 65.966742 
L 125.521171 64.008591 
L 127.070146 62.521465 
L 128.619121 61.523198 
L 129.393608 61.211385 
L 130.168096 61.02584 
L 130.942583 60.967125 
L 131.71707 61.03542 
L 132.491558 61.230515 
L 133.266045 61.55182 
L 134.81502 62.568784 
L 136.363995 64.074036 
L 137.91297 66.049533 
L 139.461945 68.471822 
L 141.01092 71.312504 
L 142.559894 74.538788 
L 144.883357 80.020396 
L 147.206819 86.15107 
L 150.304769 95.082678 
L 154.951693 109.384585 
L 161.147593 128.410998 
L 164.245542 137.286855 
L 167.343492 145.470361 
L 169.666954 151.075773 
L 171.990417 156.188309 
L 174.313879 160.793344 
L 176.637341 164.891189 
L 178.960803 168.494798 
L 181.284266 171.62732 
L 183.607728 174.319617 
L 185.93119 176.607903 
L 188.254652 178.531572 
L 190.578115 180.13131 
L 192.901577 181.447516 
L 195.225039 182.519052 
L 197.548502 183.382315 
L 200.646451 184.26642 
L 203.744401 184.908378 
L 207.616838 185.457564 
L 212.263763 185.859948 
L 218.459662 186.134623 
L 227.753511 186.282517 
L 249.439159 186.327102 
L 288.16353 186.327982 
L 288.16353 186.327982 
" clip-path="url(#p0963b5bfe7)" style="fill: none; stroke: #1f4e79; stroke-opacity: 0.5; stroke-width: 0.7; stroke-linecap: square"/>
   </g>
   <g id="line2d_32">
    <path d="M 56.59179 186.327967 
L 68.209102 186.244246 
L 71.307051 186.007818 
L 73.630513 185.580245 
L 75.179488 185.092264 
L 76.728463 184.374658 
L 78.277438 183.36164 
L 79.826413 181.983646 
L 81.375388 180.171427 
L 82.924363 177.860645 
L 84.473337 174.996555 
L 86.022312 171.538351 
L 87.571287 167.462775 
L 89.120262 162.76671 
L 90.669237 157.468563 
L 92.992699 148.485703 
L 95.316161 138.462544 
L 98.414111 124.01499 
L 104.610011 94.745878 
L 106.933473 84.800371 
L 109.256935 75.927322 
L 110.80591 70.73085 
L 112.354885 66.174998 
L 113.90386 62.29945 
L 115.452834 59.129465 
L 117.001809 56.67653 
L 117.776297 55.719018 
L 118.550784 54.939347 
L 119.325272 54.335559 
L 120.099759 53.90506 
L 120.874246 53.644671 
L 121.648734 53.550668 
L 122.423221 53.618838 
L 123.197709 53.844521 
L 123.972196 54.222663 
L 124.746684 54.747861 
L 126.295658 56.216346 
L 127.844633 58.201502 
L 129.393608 60.652091 
L 130.942583 63.515352 
L 133.266045 68.46781 
L 135.589508 74.052979 
L 138.687457 82.195988 
L 143.334382 95.188534 
L 149.530281 112.489621 
L 153.402718 122.643441 
L 156.500668 130.19822 
L 159.598618 137.170997 
L 162.696567 143.52709 
L 165.794517 149.258565 
L 168.117979 153.154103 
L 170.441442 156.715803 
L 172.764904 159.957975 
L 175.088366 162.897395 
L 177.411829 165.552457 
L 179.735291 167.94248 
L 182.058753 170.087139 
L 185.156703 172.598792 
L 188.254652 174.754067 
L 191.352602 176.595616 
L 194.450552 178.163008 
L 197.548502 179.492373 
L 201.420939 180.868611 
L 205.293376 181.979375 
L 209.165813 182.872324 
L 213.812738 183.712464 
L 219.234149 184.444277 
L 225.430049 185.038072 
L 233.174923 185.527852 
L 242.468772 185.878908 
L 255.635058 186.13087 
L 276.546219 186.274884 
L 288.16353 186.302322 
L 288.16353 186.302322 
" clip-path="url(#p0963b5bfe7)" style="fill: none; stroke: #2e7d32; stroke-opacity: 0.5; stroke-width: 0.7; stroke-linecap: square"/>
   </g>
   <g id="line2d_33">
    <path d="M 56.59179 186.327951 
L 68.983589 186.243675 
L 72.081539 186.01549 
L 74.405001 185.595807 
L 75.953976 185.106643 
L 77.502951 184.372701 
L 79.051925 183.315053 
L 80.6009 181.847324 
L 82.149875 179.881059 
L 83.69885 177.332402 
L 85.247825 174.129401 
L 86.7968 170.219137 
L 88.345775 165.573848 
L 89.894749 160.195343 
L 91.443724 154.117245 
L 93.767187 143.839276 
L 96.090649 132.479881 
L 104.610011 89.289725 
L 106.933473 79.240897 
L 108.482448 73.345903 
L 110.031422 68.181622 
L 111.580397 63.798405 
L 113.129372 60.225475 
L 114.678347 57.472364 
L 115.452834 56.40132 
L 116.227322 55.530917 
L 117.001809 54.857759 
L 117.776297 54.377656 
L 118.550784 54.085698 
L 119.325272 53.976343 
L 120.099759 54.043494 
L 120.874246 54.280577 
L 121.648734 54.680619 
L 122.423221 55.236315 
L 123.972196 56.784222 
L 125.521171 58.861801 
L 127.070146 61.405248 
L 128.619121 64.351029 
L 130.942583 69.389212 
L 133.266045 74.996448 
L 136.363995 83.051583 
L 148.755794 115.994248 
L 151.853743 123.426993 
L 154.951693 130.333889 
L 158.049643 136.681276 
L 161.147593 142.461003 
L 164.245542 147.683482 
L 167.343492 152.371996 
L 170.441442 156.558191 
L 173.539391 160.278595 
L 176.637341 163.572022 
L 179.735291 166.477687 
L 182.83324 169.033888 
L 185.93119 171.277129 
L 189.02914 173.241579 
L 192.12709 174.958776 
L 195.225039 176.457506 
L 199.097476 178.063126 
L 202.969914 179.412979 
L 206.842351 180.546144 
L 211.489275 181.666909 
L 216.1362 182.572789 
L 221.557612 183.411486 
L 227.753511 184.14461 
L 234.723898 184.752516 
L 243.24326 185.271354 
L 254.086084 185.692902 
L 268.026857 185.998162 
L 288.16353 186.200053 
L 288.16353 186.200053 
" clip-path="url(#p0963b5bfe7)" style="fill: none; stroke: #e07b00; stroke-opacity: 0.5; stroke-width: 0.7; stroke-linecap: square"/>
   </g>
   <g id="line2d_34">
    <path d="M 56.59179 186.314753 
L 63.562177 186.181241 
L 67.434614 185.880484 
L 69.758076 185.511766 
L 72.081539 184.908162 
L 73.630513 184.324988 
L 75.179488 183.555589 
L 76.728463 182.560175 
L 78.277438 181.296458 
L 79.826413 179.721121 
L 81.375388 177.791636 
L 82.924363 175.468319 
L 84.473337 172.716537 
L 86.022312 169.50892 
L 87.571287 165.827434 
L 89.120262 161.665177 
L 90.669237 157.027764 
L 92.992699 149.226068 
L 95.316161 140.522884 
L 98.414111 127.847477 
L 107.70796 88.580079 
L 110.031422 80.034034 
L 112.354885 72.525248 
L 113.90386 68.19222 
L 115.452834 64.449115 
L 117.001809 61.32728 
L 118.550784 58.846542 
L 120.099759 57.015543 
L 120.874246 56.343486 
L 121.648734 55.832362 
L 122.423221 55.48042 
L 123.197709 55.285365 
L 123.972196 55.244393 
L 124.746684 55.35423 
L 125.521171 55.611163 
L 126.295658 56.011088 
L 127.844633 57.221735 
L 129.393608 58.946864 
L 130.942583 61.143274 
L 132.491558 63.765035 
L 134.040533 66.764571 
L 136.363995 71.866715 
L 138.687457 77.549263 
L 141.785407 85.7631 
L 147.206819 100.977613 
L 152.628231 116.056281 
L 156.500668 126.179903 
L 159.598618 133.707929 
L 162.696567 140.6513 
L 165.794517 146.97368 
L 168.892467 152.664889 
L 171.215929 156.524512 
L 173.539391 160.044376 
L 175.862854 163.23802 
L 178.186316 166.121622 
L 180.509778 168.713177 
L 182.83324 171.031815 
L 185.156703 173.097231 
L 187.480165 174.929221 
L 190.578115 177.042463 
L 193.676064 178.820105 
L 196.774014 180.304316 
L 199.871964 181.534179 
L 202.969914 182.5454 
L 206.842351 183.550709 
L 210.714788 184.319804 
L 215.361712 184.996927 
L 220.783124 185.531945 
L 226.979024 185.908201 
L 235.498385 186.1723 
L 247.890184 186.301293 
L 281.193144 186.327981 
L 288.16353 186.327982 
L 288.16353 186.327982 
" clip-path="url(#p0963b5bfe7)" style="fill: none; stroke: #6a1b9a; stroke-opacity: 0.5; stroke-width: 0.7; stroke-linecap: square"/>
   </g>
   <g id="line2d_35">
    <path d="M 56.59179 186.324339 
L 63.562177 186.224287 
L 66.660127 186.017037 
L 68.983589 185.694234 
L 71.307051 185.135425 
L 72.856026 184.57948 
L 74.405001 183.834699 
L 75.953976 182.862013 
L 77.502951 181.621153 
L 79.051925 180.07223 
L 80.6009 178.177481 
L 82.149875 175.90308 
L 83.69885 173.220914 
L 85.247825 170.110227 
L 86.7968 166.559042 
L 88.345775 162.565273 
L 90.669237 155.766505 
L 92.992699 148.069029 
L 95.316161 139.602224 
L 98.414111 127.429822 
L 106.933473 93.067026 
L 109.256935 84.648752 
L 111.580397 77.079482 
L 113.129372 72.59783 
L 114.678347 68.62131 
L 116.227322 65.186103 
L 117.776297 62.319426 
L 119.325272 60.039468 
L 120.874246 58.355537 
L 121.648734 57.737644 
L 122.423221 57.268403 
L 123.197709 56.946662 
L 123.972196 56.7708 
L 124.746684 56.738761 
L 125.521171 56.84807 
L 126.295658 57.095863 
L 127.070146 57.478909 
L 128.619121 58.63619 
L 130.168096 60.287833 
L 131.71707 62.397702 
L 133.266045 64.926492 
L 134.81502 67.832601 
L 137.138482 72.804806 
L 139.461945 78.381352 
L 142.559894 86.505455 
L 147.206819 99.513217 
L 154.177206 119.062536 
L 158.049643 129.199276 
L 161.147593 136.708485 
L 164.245542 143.60047 
L 167.343492 149.835555 
L 169.666954 154.073487 
L 171.990417 157.939777 
L 174.313879 161.444598 
L 176.637341 164.602713 
L 178.960803 167.432305 
L 181.284266 169.953941 
L 183.607728 172.189679 
L 185.93119 174.162311 
L 188.254652 175.894738 
L 190.578115 177.409477 
L 193.676064 179.127937 
L 196.774014 180.546451 
L 199.871964 181.70943 
L 202.969914 182.656769 
L 206.842351 183.590977 
L 210.714788 184.301972 
L 215.361712 184.92845 
L 220.783124 185.429621 
L 227.753511 185.828708 
L 237.04736 186.106201 
L 250.988134 186.265811 
L 281.193144 186.324714 
L 288.16353 186.326378 
L 288.16353 186.326378 
" clip-path="url(#p0963b5bfe7)" style="fill: none; stroke: #00838f; stroke-opacity: 0.5; stroke-width: 0.7; stroke-linecap: square"/>
   </g>
   <g id="line2d_36">
    <path d="M 56.59179 186.321858 
L 63.562177 186.216012 
L 67.434614 185.93477 
L 69.758076 185.569892 
L 72.081539 184.956359 
L 73.630513 184.355621 
L 75.179488 183.558077 
L 76.728463 182.523126 
L 78.277438 181.208611 
L 79.826413 179.572472 
L 81.375388 177.574619 
L 82.924363 175.178937 
L 84.473337 172.355299 
L 86.022312 169.081468 
L 87.571287 165.344773 
L 89.120262 161.143446 
L 91.443724 153.995669 
L 93.767187 145.913873 
L 96.090649 137.044469 
L 99.188599 124.346263 
L 106.933473 92.06861 
L 109.256935 83.371797 
L 111.580397 75.581685 
L 113.129372 70.992619 
L 114.678347 66.944223 
L 116.227322 63.47439 
L 117.776297 60.610768 
L 119.325272 58.370752 
L 120.874246 56.761745 
L 121.648734 56.193564 
L 122.423221 55.781635 
L 123.197709 55.524318 
L 123.972196 55.419472 
L 124.746684 55.464484 
L 125.521171 55.656296 
L 126.295658 55.991441 
L 127.070146 56.466069 
L 128.619121 57.816691 
L 130.168096 59.671042 
L 131.71707 61.988047 
L 133.266045 64.723697 
L 134.81502 67.832047 
L 137.138482 73.09057 
L 139.461945 78.923479 
L 142.559894 87.329347 
L 148.755794 105.0736 
L 153.402718 118.147032 
L 157.275155 128.358383 
L 160.373105 135.905736 
L 163.471055 142.821408 
L 166.569005 149.070643 
L 168.892467 153.31579 
L 171.215929 157.188357 
L 173.539391 160.699991 
L 175.862854 163.866616 
L 178.186316 166.707255 
L 180.509778 169.243011 
L 182.83324 171.4962 
L 185.156703 173.489638 
L 187.480165 175.24606 
L 189.803627 176.787665 
L 192.901577 178.545677 
L 195.999527 180.006926 
L 199.097476 181.21459 
L 202.195426 182.207364 
L 206.067863 183.197779 
L 209.9403 183.962699 
L 214.587225 184.649047 
L 220.008637 185.211662 
L 226.204536 185.634691 
L 234.723898 185.973349 
L 246.341209 186.189297 
L 266.477882 186.302171 
L 288.16353 186.323993 
L 288.16353 186.323993 
" clip-path="url(#p0963b5bfe7)" style="fill: none; stroke: #1f4e79; stroke-opacity: 0.5; stroke-width: 0.7; stroke-linecap: square"/>
   </g>
   <g id="line2d_37">
    <path d="M 56.59179 137.583051 
L 64.336664 140.839349 
L 72.856026 144.170598 
L 81.375388 147.257892 
L 89.894749 150.119095 
L 99.188599 153.001974 
L 108.482448 155.655325 
L 118.550784 158.29193 
L 128.619121 160.701895 
L 139.461945 163.066087 
L 151.079256 165.357654 
L 162.696567 167.423474 
L 175.088366 169.403209 
L 188.254652 171.280021 
L 202.195426 173.040893 
L 216.910687 174.676549 
L 233.174923 176.251161 
L 250.213647 177.673022 
L 268.801345 178.996339 
L 288.16353 180.160117 
L 288.16353 180.160117 
" clip-path="url(#p0963b5bfe7)" style="fill: none; stroke: #c00000; stroke-opacity: 0.5; stroke-width: 0.7; stroke-linecap: square"/>
   </g>
   <g id="line2d_38">
    <path d="M 56.59179 182.76455 
L 59.68974 181.536287 
L 62.78769 180.027207 
L 65.885639 178.203017 
L 68.209102 176.607716 
L 70.532564 174.802376 
L 72.856026 172.773987 
L 75.179488 170.510594 
L 77.502951 168.001661 
L 79.826413 165.238467 
L 82.924363 161.147895 
L 86.022312 156.586574 
L 89.120262 151.55776 
L 92.218212 146.077783 
L 95.316161 140.178342 
L 99.188599 132.291048 
L 103.835523 122.264561 
L 114.678347 98.536811 
L 117.776297 92.343403 
L 120.099759 88.071914 
L 122.423221 84.209566 
L 124.746684 80.836112 
L 126.295658 78.897033 
L 127.844633 77.231372 
L 129.393608 75.859548 
L 130.942583 74.800319 
L 132.491558 74.070441 
L 134.040533 73.68433 
L 135.589508 73.653733 
L 137.138482 73.987427 
L 138.687457 74.690939 
L 140.236432 75.766308 
L 141.785407 77.211889 
L 143.334382 79.022215 
L 144.883357 81.187912 
L 146.432331 83.695689 
L 147.981306 86.528391 
L 150.304769 91.340028 
L 152.628231 96.749896 
L 155.726181 104.718105 
L 159.598618 115.506012 
L 168.892467 141.882707 
L 171.990417 149.879672 
L 174.313879 155.394536 
L 176.637341 160.430957 
L 178.960803 164.952333 
L 181.284266 168.941685 
L 183.607728 172.400356 
L 185.93119 175.345856 
L 188.254652 177.809044 
L 190.578115 179.830909 
L 192.901577 181.459205 
L 195.225039 182.745189 
L 197.548502 183.740687 
L 199.871964 184.495633 
L 202.969914 185.207107 
L 206.067863 185.667541 
L 209.9403 186.005372 
L 215.361712 186.221914 
L 224.655561 186.316577 
L 268.801345 186.327982 
L 288.16353 186.327982 
L 288.16353 186.327982 
" clip-path="url(#p0963b5bfe7)" style="fill: none; stroke: #2e7d32; stroke-opacity: 0.5; stroke-width: 0.7; stroke-linecap: square"/>
   </g>
   <g id="line2d_39">
    <path d="M 56.59179 186.290492 
L 62.013202 186.117336 
L 65.111152 185.843146 
L 67.434614 185.476159 
L 69.758076 184.900595 
L 72.081539 184.037067 
L 73.630513 183.256244 
L 75.179488 182.276838 
L 76.728463 181.068058 
L 78.277438 179.59901 
L 79.826413 177.83976 
L 81.375388 175.762489 
L 82.924363 173.342688 
L 84.473337 170.56036 
L 86.022312 167.401142 
L 87.571287 163.857327 
L 89.894749 157.822233 
L 92.218212 150.95723 
L 94.541674 143.339649 
L 97.639624 132.22532 
L 101.512061 117.359389 
L 106.933473 96.475587 
L 110.031422 85.490688 
L 112.354885 78.097213 
L 114.678347 71.634592 
L 116.227322 67.919368 
L 117.776297 64.721245 
L 119.325272 62.067798 
L 120.874246 59.978428 
L 122.423221 58.464332 
L 123.197709 57.924302 
L 123.972196 57.528658 
L 124.746684 57.276589 
L 125.521171 57.16683 
L 126.295658 57.19768 
L 127.070146 57.367019 
L 127.844633 57.672332 
L 128.619121 58.110731 
L 130.168096 59.373502 
L 131.71707 61.125664 
L 133.266045 63.333151 
L 134.81502 65.958341 
L 136.363995 68.96089 
L 138.687457 74.079533 
L 141.01092 79.805452 
L 144.108869 88.131709 
L 148.755794 101.436085 
L 154.951693 119.211122 
L 158.82413 129.638216 
L 161.92208 137.363606 
L 165.02003 144.443874 
L 167.343492 149.300675 
L 169.666954 153.759408 
L 171.990417 157.821325 
L 174.313879 161.494998 
L 176.637341 164.794817 
L 178.960803 167.739591 
L 181.284266 170.351295 
L 183.607728 172.653957 
L 185.93119 174.672719 
L 188.254652 176.433041 
L 190.578115 177.960072 
L 192.901577 179.278149 
L 195.999527 180.750363 
L 199.097476 181.942922 
L 202.195426 182.901468 
L 206.067863 183.831333 
L 209.9403 184.524862 
L 214.587225 185.121348 
L 220.008637 185.583802 
L 226.979024 185.936887 
L 236.272873 186.167948 
L 251.762621 186.294743 
L 288.16353 186.327393 
L 288.16353 186.327393 
" clip-path="url(#p0963b5bfe7)" style="fill: none; stroke: #e07b00; stroke-opacity: 0.5; stroke-width: 0.7; stroke-linecap: square"/>
   </g>
   <g id="line2d_40">
    <path d="M 56.59179 186.327982 
L 75.953976 186.231452 
L 77.502951 186.03669 
L 79.051925 185.581827 
L 79.826413 185.195654 
L 80.6009 184.663196 
L 81.375388 183.950681 
L 82.149875 183.023168 
L 82.924363 181.846142 
L 83.69885 180.387224 
L 84.473337 178.617858 
L 85.247825 176.514853 
L 86.7968 171.249312 
L 88.345775 164.552272 
L 89.894749 156.515645 
L 91.443724 147.350487 
L 93.767187 132.162729 
L 98.414111 101.057321 
L 100.737573 87.334821 
L 102.286548 79.401593 
L 103.835523 72.593428 
L 105.384498 66.974179 
L 106.933473 62.556674 
L 107.70796 60.790989 
L 108.482448 59.312326 
L 109.256935 58.112251 
L 110.031422 57.180938 
L 110.80591 56.507428 
L 111.580397 56.079878 
L 112.354885 55.885775 
L 113.129372 55.912144 
L 113.90386 56.145719 
L 114.678347 56.573102 
L 115.452834 57.180904 
L 117.001809 58.884913 
L 118.550784 61.15476 
L 120.099759 63.893341 
L 122.423221 68.686271 
L 124.746684 74.067196 
L 128.619121 83.755345 
L 136.363995 103.369649 
L 140.236432 112.476085 
L 143.334382 119.238574 
L 146.432331 125.494829 
L 149.530281 131.236603 
L 152.628231 136.474379 
L 155.726181 141.230621 
L 158.82413 145.534895 
L 161.92208 149.420416 
L 165.02003 152.921685 
L 168.117979 156.072903 
L 171.215929 158.906963 
L 174.313879 161.454844 
L 177.411829 163.74529 
L 180.509778 165.804673 
L 184.382215 168.090319 
L 188.254652 170.094142 
L 192.12709 171.852823 
L 196.774014 173.684363 
L 201.420939 175.256064 
L 206.067863 176.60779 
L 211.489275 177.951166 
L 217.685175 179.23158 
L 223.881074 180.29056 
L 230.851461 181.269308 
L 239.370823 182.224877 
L 248.664672 183.036021 
L 259.507496 183.756194 
L 272.673782 184.396295 
L 288.16353 184.924231 
L 288.16353 184.924231 
" clip-path="url(#p0963b5bfe7)" style="fill: none; stroke: #6a1b9a; stroke-opacity: 0.5; stroke-width: 0.7; stroke-linecap: square"/>
   </g>
   <g id="line2d_41">
    <path d="M 56.59179 186.327982 
L 72.856026 186.250388 
L 75.179488 186.025918 
L 76.728463 185.672662 
L 78.277438 185.029552 
L 79.826413 183.953148 
L 80.6009 183.201949 
L 81.375388 182.280911 
L 82.149875 181.169746 
L 82.924363 179.8495 
L 84.473337 176.516817 
L 86.022312 172.183365 
L 87.571287 166.808728 
L 89.120262 160.420328 
L 90.669237 153.113447 
L 92.992699 140.783556 
L 96.865136 118.392932 
L 99.963086 100.937834 
L 102.286548 89.20056 
L 103.835523 82.306895 
L 105.384498 76.276422 
L 106.933473 71.169177 
L 108.482448 67.011838 
L 110.031422 63.802085 
L 110.80591 62.545114 
L 111.580397 61.513555 
L 112.354885 60.701187 
L 113.129372 60.100917 
L 113.90386 59.704911 
L 114.678347 59.504738 
L 115.452834 59.491494 
L 116.227322 59.655913 
L 117.001809 59.98848 
L 117.776297 60.479523 
L 119.325272 61.89808 
L 120.874246 63.83415 
L 122.423221 66.21239 
L 123.972196 68.961055 
L 126.295658 73.633299 
L 129.393608 80.578985 
L 134.040533 91.749583 
L 140.236432 106.615176 
L 144.108869 115.340871 
L 147.206819 121.859958 
L 150.304769 127.922093 
L 153.402718 133.511728 
L 156.500668 138.631456 
L 159.598618 143.296235 
L 162.696567 147.529003 
L 165.794517 151.357418 
L 168.892467 154.811497 
L 171.990417 157.921947 
L 175.088366 160.719026 
L 178.186316 163.231794 
L 181.284266 165.487647 
L 184.382215 167.512071 
L 188.254652 169.752698 
L 192.12709 171.709583 
L 195.999527 173.419321 
L 199.871964 174.914061 
L 204.518888 176.463262 
L 209.165813 177.78489 
L 214.587225 179.085857 
L 220.783124 180.311107 
L 226.979024 181.310608 
L 233.949411 182.220158 
L 242.468772 183.091238 
L 251.762621 183.813565 
L 262.605445 184.437428 
L 275.771732 184.973325 
L 288.16353 185.325948 
L 288.16353 185.325948 
" clip-path="url(#p0963b5bfe7)" style="fill: none; stroke: #00838f; stroke-opacity: 0.5; stroke-width: 0.7; stroke-linecap: square"/>
   </g>
   <g id="line2d_42">
    <path d="M 56.59179 150.605869 
L 78.277438 149.401629 
L 96.090649 148.198352 
L 110.80591 146.996947 
L 123.197709 145.780031 
L 134.040533 144.499036 
L 143.334382 143.175346 
L 151.079256 141.848745 
L 157.275155 140.584217 
L 162.696567 139.274098 
L 167.343492 137.945122 
L 171.215929 136.640832 
L 175.088366 135.092062 
L 178.186316 133.611936 
L 180.509778 132.310591 
L 182.83324 130.788838 
L 185.156703 128.966836 
L 186.705678 127.524309 
L 188.254652 125.832211 
L 189.803627 123.797866 
L 191.352602 121.2682 
L 192.901577 117.964613 
L 193.676064 115.862227 
L 194.450552 113.299918 
L 195.225039 110.051331 
L 195.999527 105.680241 
L 196.774014 99.177154 
L 197.548502 87.231366 
L 198.322989 28.680797 
L 199.097476 186.327982 
L 288.16353 186.327982 
L 288.16353 186.327982 
" clip-path="url(#p0963b5bfe7)" style="fill: none; stroke: #1f4e79; stroke-opacity: 0.5; stroke-width: 0.7; stroke-linecap: square"/>
   </g>
   <g id="patch_9">
    <path d="M 45.013203 186.327982 
L 45.013203 20.798437 
" style="fill: none; stroke: #000000; stroke-width: 0.8; stroke-linejoin: miter; stroke-linecap: square"/>
   </g>
   <g id="patch_10">
    <path d="M 45.013203 186.327982 
L 299.742117 186.327982 
" style="fill: none; stroke: #000000; stroke-width: 0.8; stroke-linejoin: miter; stroke-linecap: square"/>
   </g>
   <g id="text_18">
    <!-- Histograma y densidades  21201300 -->
    <g transform="translate(80.103441 14.798437) scale(0.1 -0.1)">
     <defs>
      <path id="DejaVuSans-2b" d="M 628 4666 
L 1259 4666 
L 1259 2753 
L 3553 2753 
L 3553 4666 
L 4184 4666 
L 4184 0 
L 3553 0 
L 3553 2222 
L 1259 2222 
L 1259 0 
L 628 0 
L 628 4666 
z
" transform="scale(0.015625)"/>
      <path id="DejaVuSans-57" d="M 1172 4494 
L 1172 3500 
L 2356 3500 
L 2356 3053 
L 1172 3053 
L 1172 1153 
Q 1172 725 1289 603 
Q 1406 481 1766 481 
L 2356 481 
L 2356 0 
L 1766 0 
Q 1100 0 847 248 
Q 594 497 594 1153 
L 594 3053 
L 172 3053 
L 172 3500 
L 594 3500 
L 594 4494 
L 1172 4494 
z
" transform="scale(0.015625)"/>
      <path id="DejaVuSans-52" d="M 1959 3097 
Q 1497 3097 1228 2736 
Q 959 2375 959 1747 
Q 959 1119 1226 758 
Q 1494 397 1959 397 
Q 2419 397 2687 759 
Q 2956 1122 2956 1747 
Q 2956 2369 2687 2733 
Q 2419 3097 1959 3097 
z
M 1959 3584 
Q 2709 3584 3137 3096 
Q 3566 2609 3566 1747 
Q 3566 888 3137 398 
Q 2709 -91 1959 -91 
Q 1206 -91 779 398 
Q 353 888 353 1747 
Q 353 2609 779 3096 
Q 1206 3584 1959 3584 
z
" transform="scale(0.015625)"/>
      <path id="DejaVuSans-4a" d="M 2906 1791 
Q 2906 2416 2648 2759 
Q 2391 3103 1925 3103 
Q 1463 3103 1205 2759 
Q 947 2416 947 1791 
Q 947 1169 1205 825 
Q 1463 481 1925 481 
Q 2391 481 2648 825 
Q 2906 1169 2906 1791 
z
M 3481 434 
Q 3481 -459 3084 -895 
Q 2688 -1331 1869 -1331 
Q 1566 -1331 1297 -1286 
Q 1028 -1241 775 -1147 
L 775 -588 
Q 1028 -725 1275 -790 
Q 1522 -856 1778 -856 
Q 2344 -856 2625 -561 
Q 2906 -266 2906 331 
L 2906 616 
Q 2728 306 2450 153 
Q 2172 0 1784 0 
Q 1141 0 747 490 
Q 353 981 353 1791 
Q 353 2603 747 3093 
Q 1141 3584 1784 3584 
Q 2172 3584 2450 3431 
Q 2728 3278 2906 2969 
L 2906 3500 
L 3481 3500 
L 3481 434 
z
" transform="scale(0.015625)"/>
      <path id="DejaVuSans-55" d="M 2631 2963 
Q 2534 3019 2420 3045 
Q 2306 3072 2169 3072 
Q 1681 3072 1420 2755 
Q 1159 2438 1159 1844 
L 1159 0 
L 581 0 
L 581 3500 
L 1159 3500 
L 1159 2956 
Q 1341 3275 1631 3429 
Q 1922 3584 2338 3584 
Q 2397 3584 2469 3576 
Q 2541 3569 2628 3553 
L 2631 2963 
z
" transform="scale(0.015625)"/>
      <path id="DejaVuSans-5c" d="M 2059 -325 
Q 1816 -950 1584 -1140 
Q 1353 -1331 966 -1331 
L 506 -1331 
L 506 -850 
L 844 -850 
Q 1081 -850 1212 -737 
Q 1344 -625 1503 -206 
L 1606 56 
L 191 3500 
L 800 3500 
L 1894 763 
L 2988 3500 
L 3597 3500 
L 2059 -325 
z
" transform="scale(0.015625)"/>
     </defs>
     <use xlink:href="#DejaVuSans-2b"/>
     <use xlink:href="#DejaVuSans-4c" transform="translate(75.203125 0)"/>
     <use xlink:href="#DejaVuSans-56" transform="translate(102.984375 0)"/>
     <use xlink:href="#DejaVuSans-57" transform="translate(155.078125 0)"/>
     <use xlink:href="#DejaVuSans-52" transform="translate(194.28125 0)"/>
     <use xlink:href="#DejaVuSans-4a" transform="translate(255.46875 0)"/>
     <use xlink:href="#DejaVuSans-55" transform="translate(318.953125 0)"/>
     <use xlink:href="#DejaVuSans-44" transform="translate(360.0625 0)"/>
     <use xlink:href="#DejaVuSans-50" transform="translate(421.34375 0)"/>
     <use xlink:href="#DejaVuSans-44" transform="translate(518.75 0)"/>
     <use xlink:href="#DejaVuSans-3" transform="translate(580.03125 0)"/>
     <use xlink:href="#DejaVuSans-5c" transform="translate(611.8125 0)"/>
     <use xlink:href="#DejaVuSans-3" transform="translate(671 0)"/>
     <use xlink:href="#DejaVuSans-47" transform="translate(702.78125 0)"/>
     <use xlink:href="#DejaVuSans-48" transform="translate(766.265625 0)"/>
     <use xlink:href="#DejaVuSans-51" transform="translate(827.796875 0)"/>
     <use xlink:href="#DejaVuSans-56" transform="translate(891.171875 0)"/>
     <use xlink:href="#DejaVuSans-4c" transform="translate(943.265625 0)"/>
     <use xlink:href="#DejaVuSans-47" transform="translate(971.046875 0)"/>
     <use xlink:href="#DejaVuSans-44" transform="translate(1034.53125 0)"/>
     <use xlink:href="#DejaVuSans-47" transform="translate(1095.8125 0)"/>
     <use xlink:href="#DejaVuSans-48" transform="translate(1159.296875 0)"/>
     <use xlink:href="#DejaVuSans-56" transform="translate(1220.828125 0)"/>
     <use xlink:href="#DejaVuSans-3" transform="translate(1272.921875 0)"/>
     <use xlink:href="#DejaVuSans-3" transform="translate(1304.703125 0)"/>
     <use xlink:href="#DejaVuSans-15" transform="translate(1336.484375 0)"/>
     <use xlink:href="#DejaVuSans-14" transform="translate(1400.109375 0)"/>
     <use xlink:href="#DejaVuSans-15" transform="translate(1463.734375 0)"/>
     <use xlink:href="#DejaVuSans-13" transform="translate(1527.359375 0)"/>
     <use xlink:href="#DejaVuSans-14" transform="translate(1590.984375 0)"/>
     <use xlink:href="#DejaVuSans-16" transform="translate(1654.609375 0)"/>
     <use xlink:href="#DejaVuSans-13" transform="translate(1718.234375 0)"/>
     <use xlink:href="#DejaVuSans-13" transform="translate(1781.859375 0)"/>
    </g>
   </g>
   <g id="line2d_43">
    <path d="M 56.59179 186.325971 
L 65.111152 186.219083 
L 68.209102 186.005707 
L 70.532564 185.668957 
L 72.856026 185.076236 
L 74.405001 184.477956 
L 75.953976 183.666994 
L 77.502951 182.596067 
L 79.051925 181.215985 
L 80.6009 179.477827 
L 82.149875 177.33542 
L 83.69885 174.747951 
L 85.247825 171.682544 
L 86.7968 168.116618 
L 88.345775 164.03987 
L 89.894749 159.45575 
L 92.218212 151.67181 
L 94.541674 142.913343 
L 97.639624 130.060932 
L 107.70796 86.718247 
L 110.031422 78.17658 
L 111.580397 73.084501 
L 113.129372 68.542162 
L 114.678347 64.595152 
L 116.227322 61.277425 
L 117.776297 58.611273 
L 119.325272 56.607619 
L 120.099759 55.854669 
L 120.874246 55.26659 
L 121.648734 54.841841 
L 122.423221 54.578319 
L 123.197709 54.473389 
L 123.972196 54.523922 
L 124.746684 54.726329 
L 125.521171 55.0766 
L 126.295658 55.570345 
L 127.844633 56.968994 
L 129.393608 58.880924 
L 130.942583 61.261068 
L 132.491558 64.061784 
L 134.040533 67.233927 
L 136.363995 72.579971 
L 138.687457 78.484607 
L 141.785407 86.95432 
L 154.951693 123.873919 
L 158.049643 131.631493 
L 161.147593 138.785935 
L 164.245542 145.292997 
L 166.569005 149.739215 
L 168.892467 153.816275 
L 171.215929 157.533372 
L 173.539391 160.904311 
L 175.862854 163.946297 
L 178.186316 166.678891 
L 180.509778 169.123119 
L 182.83324 171.300736 
L 185.156703 173.233629 
L 187.480165 174.943348 
L 190.578115 176.91172 
L 193.676064 178.566976 
L 196.774014 179.952058 
L 199.871964 181.105798 
L 203.744401 182.274982 
L 207.616838 183.195035 
L 212.263763 184.038851 
L 216.910687 184.663309 
L 223.106587 185.246443 
L 230.076973 185.667293 
L 239.370823 185.989115 
L 252.537109 186.198468 
L 275.771732 186.304949 
L 288.16353 186.31889 
L 288.16353 186.31889 
" clip-path="url(#p0963b5bfe7)" style="fill: none; stroke: #c00000; stroke-width: 2.2; stroke-linecap: square"/>
   </g>
   <g id="legend_1">
    <g id="line2d_44">
     <path d="M 234.189305 29.967344 
L 241.189305 29.967344 
L 248.189305 29.967344 
" style="fill: none; stroke: #c00000; stroke-width: 2.2; stroke-linecap: square"/>
    </g>
    <g id="text_19">
     <!-- lognormal2 -->
     <g transform="translate(253.789305 32.417344) scale(0.07 -0.07)">
      <defs>
       <path id="DejaVuSans-4f" d="M 603 4863 
L 1178 4863 
L 1178 0 
L 603 0 
L 603 4863 
z
" transform="scale(0.015625)"/>
      </defs>
      <use xlink:href="#DejaVuSans-4f"/>
      <use xlink:href="#DejaVuSans-52" transform="translate(27.78125 0)"/>
      <use xlink:href="#DejaVuSans-4a" transform="translate(88.96875 0)"/>
      <use xlink:href="#DejaVuSans-51" transform="translate(152.453125 0)"/>
      <use xlink:href="#DejaVuSans-52" transform="translate(215.828125 0)"/>
      <use xlink:href="#DejaVuSans-55" transform="translate(277.015625 0)"/>
      <use xlink:href="#DejaVuSans-50" transform="translate(316.375 0)"/>
      <use xlink:href="#DejaVuSans-44" transform="translate(413.78125 0)"/>
      <use xlink:href="#DejaVuSans-4f" transform="translate(475.0625 0)"/>
      <use xlink:href="#DejaVuSans-15" transform="translate(502.84375 0)"/>
     </g>
    </g>
   </g>
  </g>
 </g>
 <defs>
  <clipPath id="p0963b5bfe7">
   <rect x="45.013203" y="20.798437" width="254.728914" height="165.529544"/>
  </clipPath>
 </defs>
</svg>
