<?xml version="1.0" encoding="utf-8" standalone="no"?>
<!DOCTYPE svg PUBLIC "-//W3C//DTD SVG 1.1//EN"
  "http://www.w3.org/Graphics/SVG/1.1/DTD/svg11.dtd">
<svg xmlns:xlink="http://www.w3.org/1999/xlink" width="306.942117pt" height="221.528685pt" viewBox="0 0 306.942117 221.528685" xmlns="http://www.w3.org/2000/svg" version="1.1">
 <metadata>
  <rdf:RDF xmlns:dc="http://purl.org/dc/elements/1.1/" xmlns:cc="http://creativecommons.org/ns#" xmlns:rdf="http://www.w3.org/1999/02/22-rdf-syntax-ns#">
   <cc:Work>
    <dc:type rdf:resource="http://purl.org/dc/dcmitype/StillImage"/>
    <dc:date>2026-08-08T15:13:36.594044</dc:date>
    <dc:format>image/svg+xml</dc:format>
    <dc:creator>
     <cc:Agent>
      <dc:title>Matplotlib v3.11.1, https://matplotlib.org/</dc:title>
     </cc:Agent>
    </dc:creator>
   </cc:Work>
  </rdf:RDF>
 </metadata>
 <defs>
  <style type="text/css">*{stroke-linejoin: round; stroke-linecap: butt}</style>
 </defs>
 <g id="figure_1">
  <g id="patch_1">
   <path d="M 0 221.528685 
L 306.942117 221.528685 
L 306.942117 0 
L 0 0 
z
" style="fill: #ffffff"/>
  </g>
  <g id="axes_1">
   <g id="patch_2">
    <path d="M 45.013203 186.327982 
L 299.742117 186.327982 
L 299.742117 20.798437 
L 45.013203 20.798437 
z
" style="fill: #ffffff"/>
   </g>
   <g id="matplotlib.axis_1">
    <g id="xtick_1">
     <g id="line2d_1">
      <path d="M 57.627905 186.327982 
L 57.627905 20.798437 
" clip-path="url(#p77f3b32c43)" style="fill: none; stroke: #9a9a9a; stroke-opacity: 0.5; stroke-width: 0.4; stroke-linecap: square"/>
     </g>
     <g id="line2d_2">
      <defs>
       <path id="m3832cd6f6c" d="M 0 0 
L 0 3.5 
" style="stroke: #000000; stroke-width: 0.8"/>
      </defs>
      <g>
       <use xlink:href="#m3832cd6f6c" x="57.627905" y="186.327982" style="stroke: #000000; stroke-width: 0.8"/>
      </g>
     </g>
     <g id="text_1">
      <!-- 10 -->
      <g transform="translate(52.537905 199.406107) scale(0.08 -0.08)">
       <defs>
        <path id="DejaVuSans-14" d="M 794 531 
L 1825 531 
L 1825 4091 
L 703 3866 
L 703 4441 
L 1819 4666 
L 2450 4666 
L 2450 531 
L 3481 531 
L 3481 0 
L 794 0 
L 794 531 
z
" transform="scale(0.015625)"/>
        <path id="DejaVuSans-13" d="M 2034 4250 
Q 1547 4250 1301 3770 
Q 1056 3291 1056 2328 
Q 1056 1369 1301 889 
Q 1547 409 2034 409 
Q 2525 409 2770 889 
Q 3016 1369 3016 2328 
Q 3016 3291 2770 3770 
Q 2525 4250 2034 4250 
z
M 2034 4750 
Q 2819 4750 3233 4129 
Q 3647 3509 3647 2328 
Q 3647 1150 3233 529 
Q 2819 -91 2034 -91 
Q 1250 -91 836 529 
Q 422 1150 422 2328 
Q 422 3509 836 4129 
Q 1250 4750 2034 4750 
z
" transform="scale(0.015625)"/>
       </defs>
       <use xlink:href="#DejaVuSans-14"/>
       <use xlink:href="#DejaVuSans-13" transform="translate(63.625 0)"/>
      </g>
     </g>
    </g>
    <g id="xtick_2">
     <g id="line2d_3">
      <path d="M 94.632018 186.327982 
L 94.632018 20.798437 
" clip-path="url(#p77f3b32c43)" style="fill: none; stroke: #9a9a9a; stroke-opacity: 0.5; stroke-width: 0.4; stroke-linecap: square"/>
     </g>
     <g id="line2d_4">
      <g>
       <use xlink:href="#m3832cd6f6c" x="94.632018" y="186.327982" style="stroke: #000000; stroke-width: 0.8"/>
      </g>
     </g>
     <g id="text_2">
      <!-- 20 -->
      <g transform="translate(89.542018 199.406107) scale(0.08 -0.08)">
       <defs>
        <path id="DejaVuSans-15" d="M 1228 531 
L 3431 531 
L 3431 0 
L 469 0 
L 469 531 
Q 828 903 1448 1529 
Q 2069 2156 2228 2338 
Q 2531 2678 2651 2914 
Q 2772 3150 2772 3378 
Q 2772 3750 2511 3984 
Q 2250 4219 1831 4219 
Q 1534 4219 1204 4116 
Q 875 4013 500 3803 
L 500 4441 
Q 881 4594 1212 4672 
Q 1544 4750 1819 4750 
Q 2544 4750 2975 4387 
Q 3406 4025 3406 3419 
Q 3406 3131 3298 2873 
Q 3191 2616 2906 2266 
Q 2828 2175 2409 1742 
Q 1991 1309 1228 531 
z
" transform="scale(0.015625)"/>
       </defs>
       <use xlink:href="#DejaVuSans-15"/>
       <use xlink:href="#DejaVuSans-13" transform="translate(63.625 0)"/>
      </g>
     </g>
    </g>
    <g id="xtick_3">
     <g id="line2d_5">
      <path d="M 131.636132 186.327982 
L 131.636132 20.798437 
" clip-path="url(#p77f3b32c43)" style="fill: none; stroke: #9a9a9a; stroke-opacity: 0.5; stroke-width: 0.4; stroke-linecap: square"/>
     </g>
     <g id="line2d_6">
      <g>
       <use xlink:href="#m3832cd6f6c" x="131.636132" y="186.327982" style="stroke: #000000; stroke-width: 0.8"/>
      </g>
     </g>
     <g id="text_3">
      <!-- 30 -->
      <g transform="translate(126.546132 199.406107) scale(0.08 -0.08)">
       <defs>
        <path id="DejaVuSans-16" d="M 2597 2516 
Q 3050 2419 3304 2112 
Q 3559 1806 3559 1356 
Q 3559 666 3084 287 
Q 2609 -91 1734 -91 
Q 1441 -91 1130 -33 
Q 819 25 488 141 
L 488 750 
Q 750 597 1062 519 
Q 1375 441 1716 441 
Q 2309 441 2620 675 
Q 2931 909 2931 1356 
Q 2931 1769 2642 2001 
Q 2353 2234 1838 2234 
L 1294 2234 
L 1294 2753 
L 1863 2753 
Q 2328 2753 2575 2939 
Q 2822 3125 2822 3475 
Q 2822 3834 2567 4026 
Q 2313 4219 1838 4219 
Q 1578 4219 1281 4162 
Q 984 4106 628 3988 
L 628 4550 
Q 988 4650 1302 4700 
Q 1616 4750 1894 4750 
Q 2613 4750 3031 4423 
Q 3450 4097 3450 3541 
Q 3450 3153 3228 2886 
Q 3006 2619 2597 2516 
z
" transform="scale(0.015625)"/>
       </defs>
       <use xlink:href="#DejaVuSans-16"/>
       <use xlink:href="#DejaVuSans-13" transform="translate(63.625 0)"/>
      </g>
     </g>
    </g>
    <g id="xtick_4">
     <g id="line2d_7">
      <path d="M 168.640245 186.327982 
L 168.640245 20.798437 
" clip-path="url(#p77f3b32c43)" style="fill: none; stroke: #9a9a9a; stroke-opacity: 0.5; stroke-width: 0.4; stroke-linecap: square"/>
     </g>
     <g id="line2d_8">
      <g>
       <use xlink:href="#m3832cd6f6c" x="168.640245" y="186.327982" style="stroke: #000000; stroke-width: 0.8"/>
      </g>
     </g>
     <g id="text_4">
      <!-- 40 -->
      <g transform="translate(163.550245 199.406107) scale(0.08 -0.08)">
       <defs>
        <path id="DejaVuSans-17" d="M 2419 4116 
L 825 1625 
L 2419 1625 
L 2419 4116 
z
M 2253 4666 
L 3047 4666 
L 3047 1625 
L 3713 1625 
L 3713 1100 
L 3047 1100 
L 3047 0 
L 2419 0 
L 2419 1100 
L 313 1100 
L 313 1709 
L 2253 4666 
z
" transform="scale(0.015625)"/>
       </defs>
       <use xlink:href="#DejaVuSans-17"/>
       <use xlink:href="#DejaVuSans-13" transform="translate(63.625 0)"/>
      </g>
     </g>
    </g>
    <g id="xtick_5">
     <g id="line2d_9">
      <path d="M 205.644358 186.327982 
L 205.644358 20.798437 
" clip-path="url(#p77f3b32c43)" style="fill: none; stroke: #9a9a9a; stroke-opacity: 0.5; stroke-width: 0.4; stroke-linecap: square"/>
     </g>
     <g id="line2d_10">
      <g>
       <use xlink:href="#m3832cd6f6c" x="205.644358" y="186.327982" style="stroke: #000000; stroke-width: 0.8"/>
      </g>
     </g>
     <g id="text_5">
      <!-- 50 -->
      <g transform="translate(200.554358 199.406107) scale(0.08 -0.08)">
       <defs>
        <path id="DejaVuSans-18" d="M 691 4666 
L 3169 4666 
L 3169 4134 
L 1269 4134 
L 1269 2991 
Q 1406 3038 1543 3061 
Q 1681 3084 1819 3084 
Q 2600 3084 3056 2656 
Q 3513 2228 3513 1497 
Q 3513 744 3044 326 
Q 2575 -91 1722 -91 
Q 1428 -91 1123 -41 
Q 819 9 494 109 
L 494 744 
Q 775 591 1075 516 
Q 1375 441 1709 441 
Q 2250 441 2565 725 
Q 2881 1009 2881 1497 
Q 2881 1984 2565 2268 
Q 2250 2553 1709 2553 
Q 1456 2553 1204 2497 
Q 953 2441 691 2322 
L 691 4666 
z
" transform="scale(0.015625)"/>
       </defs>
       <use xlink:href="#DejaVuSans-18"/>
       <use xlink:href="#DejaVuSans-13" transform="translate(63.625 0)"/>
      </g>
     </g>
    </g>
    <g id="xtick_6">
     <g id="line2d_11">
      <path d="M 242.648471 186.327982 
L 242.648471 20.798437 
" clip-path="url(#p77f3b32c43)" style="fill: none; stroke: #9a9a9a; stroke-opacity: 0.5; stroke-width: 0.4; stroke-linecap: square"/>
     </g>
     <g id="line2d_12">
      <g>
       <use xlink:href="#m3832cd6f6c" x="242.648471" y="186.327982" style="stroke: #000000; stroke-width: 0.8"/>
      </g>
     </g>
     <g id="text_6">
      <!-- 60 -->
      <g transform="translate(237.558471 199.406107) scale(0.08 -0.08)">
       <defs>
        <path id="DejaVuSans-19" d="M 2113 2584 
Q 1688 2584 1439 2293 
Q 1191 2003 1191 1497 
Q 1191 994 1439 701 
Q 1688 409 2113 409 
Q 2538 409 2786 701 
Q 3034 994 3034 1497 
Q 3034 2003 2786 2293 
Q 2538 2584 2113 2584 
z
M 3366 4563 
L 3366 3988 
Q 3128 4100 2886 4159 
Q 2644 4219 2406 4219 
Q 1781 4219 1451 3797 
Q 1122 3375 1075 2522 
Q 1259 2794 1537 2939 
Q 1816 3084 2150 3084 
Q 2853 3084 3261 2657 
Q 3669 2231 3669 1497 
Q 3669 778 3244 343 
Q 2819 -91 2113 -91 
Q 1303 -91 875 529 
Q 447 1150 447 2328 
Q 447 3434 972 4092 
Q 1497 4750 2381 4750 
Q 2619 4750 2861 4703 
Q 3103 4656 3366 4563 
z
" transform="scale(0.015625)"/>
       </defs>
       <use xlink:href="#DejaVuSans-19"/>
       <use xlink:href="#DejaVuSans-13" transform="translate(63.625 0)"/>
      </g>
     </g>
    </g>
    <g id="xtick_7">
     <g id="line2d_13">
      <path d="M 279.652584 186.327982 
L 279.652584 20.798437 
" clip-path="url(#p77f3b32c43)" style="fill: none; stroke: #9a9a9a; stroke-opacity: 0.5; stroke-width: 0.4; stroke-linecap: square"/>
     </g>
     <g id="line2d_14">
      <g>
       <use xlink:href="#m3832cd6f6c" x="279.652584" y="186.327982" style="stroke: #000000; stroke-width: 0.8"/>
      </g>
     </g>
     <g id="text_7">
      <!-- 70 -->
      <g transform="translate(274.562584 199.406107) scale(0.08 -0.08)">
       <defs>
        <path id="DejaVuSans-1a" d="M 525 4666 
L 3525 4666 
L 3525 4397 
L 1831 0 
L 1172 0 
L 2766 4134 
L 525 4134 
L 525 4666 
z
" transform="scale(0.015625)"/>
       </defs>
       <use xlink:href="#DejaVuSans-1a"/>
       <use xlink:href="#DejaVuSans-13" transform="translate(63.625 0)"/>
      </g>
     </g>
    </g>
    <g id="text_8">
     <!-- Pmax 24 h (mm) -->
     <g transform="translate(134.713363 212.166575) scale(0.09 -0.09)">
      <defs>
       <path id="DejaVuSans-33" d="M 1259 4147 
L 1259 2394 
L 2053 2394 
Q 2494 2394 2734 2622 
Q 2975 2850 2975 3272 
Q 2975 3691 2734 3919 
Q 2494 4147 2053 4147 
L 1259 4147 
z
M 628 4666 
L 2053 4666 
Q 2838 4666 3239 4311 
Q 3641 3956 3641 3272 
Q 3641 2581 3239 2228 
Q 2838 1875 2053 1875 
L 1259 1875 
L 1259 0 
L 628 0 
L 628 4666 
z
" transform="scale(0.015625)"/>
       <path id="DejaVuSans-50" d="M 3328 2828 
Q 3544 3216 3844 3400 
Q 4144 3584 4550 3584 
Q 5097 3584 5394 3201 
Q 5691 2819 5691 2113 
L 5691 0 
L 5113 0 
L 5113 2094 
Q 5113 2597 4934 2840 
Q 4756 3084 4391 3084 
Q 3944 3084 3684 2787 
Q 3425 2491 3425 1978 
L 3425 0 
L 2847 0 
L 2847 2094 
Q 2847 2600 2669 2842 
Q 2491 3084 2119 3084 
Q 1678 3084 1418 2786 
Q 1159 2488 1159 1978 
L 1159 0 
L 581 0 
L 581 3500 
L 1159 3500 
L 1159 2956 
Q 1356 3278 1631 3431 
Q 1906 3584 2284 3584 
Q 2666 3584 2933 3390 
Q 3200 3197 3328 2828 
z
" transform="scale(0.015625)"/>
       <path id="DejaVuSans-44" d="M 2194 1759 
Q 1497 1759 1228 1600 
Q 959 1441 959 1056 
Q 959 750 1161 570 
Q 1363 391 1709 391 
Q 2188 391 2477 730 
Q 2766 1069 2766 1631 
L 2766 1759 
L 2194 1759 
z
M 3341 1997 
L 3341 0 
L 2766 0 
L 2766 531 
Q 2569 213 2275 61 
Q 1981 -91 1556 -91 
Q 1019 -91 701 211 
Q 384 513 384 1019 
Q 384 1609 779 1909 
Q 1175 2209 1959 2209 
L 2766 2209 
L 2766 2266 
Q 2766 2663 2505 2880 
Q 2244 3097 1772 3097 
Q 1472 3097 1187 3025 
Q 903 2953 641 2809 
L 641 3341 
Q 956 3463 1253 3523 
Q 1550 3584 1831 3584 
Q 2591 3584 2966 3190 
Q 3341 2797 3341 1997 
z
" transform="scale(0.015625)"/>
       <path id="DejaVuSans-5b" d="M 3513 3500 
L 2247 1797 
L 3578 0 
L 2900 0 
L 1881 1375 
L 863 0 
L 184 0 
L 1544 1831 
L 300 3500 
L 978 3500 
L 1906 2253 
L 2834 3500 
L 3513 3500 
z
" transform="scale(0.015625)"/>
       <path id="DejaVuSans-3" transform="scale(0.015625)"/>
       <path id="DejaVuSans-4b" d="M 3513 2113 
L 3513 0 
L 2938 0 
L 2938 2094 
Q 2938 2591 2744 2837 
Q 2550 3084 2163 3084 
Q 1697 3084 1428 2787 
Q 1159 2491 1159 1978 
L 1159 0 
L 581 0 
L 581 4863 
L 1159 4863 
L 1159 2956 
Q 1366 3272 1645 3428 
Q 1925 3584 2291 3584 
Q 2894 3584 3203 3211 
Q 3513 2838 3513 2113 
z
" transform="scale(0.015625)"/>
       <path id="DejaVuSans-b" d="M 1984 4856 
Q 1566 4138 1362 3434 
Q 1159 2731 1159 2009 
Q 1159 1288 1364 580 
Q 1569 -128 1984 -844 
L 1484 -844 
Q 1016 -109 783 600 
Q 550 1309 550 2009 
Q 550 2706 781 3412 
Q 1013 4119 1484 4856 
L 1984 4856 
z
" transform="scale(0.015625)"/>
       <path id="DejaVuSans-c" d="M 513 4856 
L 1013 4856 
Q 1481 4119 1714 3412 
Q 1947 2706 1947 2009 
Q 1947 1309 1714 600 
Q 1481 -109 1013 -844 
L 513 -844 
Q 928 -128 1133 580 
Q 1338 1288 1338 2009 
Q 1338 2731 1133 3434 
Q 928 4138 513 4856 
z
" transform="scale(0.015625)"/>
      </defs>
      <use xlink:href="#DejaVuSans-33"/>
      <use xlink:href="#DejaVuSans-50" transform="translate(60.296875 0)"/>
      <use xlink:href="#DejaVuSans-44" transform="translate(157.703125 0)"/>
      <use xlink:href="#DejaVuSans-5b" transform="translate(218.984375 0)"/>
      <use xlink:href="#DejaVuSans-3" transform="translate(278.171875 0)"/>
      <use xlink:href="#DejaVuSans-15" transform="translate(309.953125 0)"/>
      <use xlink:href="#DejaVuSans-17" transform="translate(373.578125 0)"/>
      <use xlink:href="#DejaVuSans-3" transform="translate(437.203125 0)"/>
      <use xlink:href="#DejaVuSans-4b" transform="translate(468.984375 0)"/>
      <use xlink:href="#DejaVuSans-3" transform="translate(532.359375 0)"/>
      <use xlink:href="#DejaVuSans-b" transform="translate(564.140625 0)"/>
      <use xlink:href="#DejaVuSans-50" transform="translate(603.15625 0)"/>
      <use xlink:href="#DejaVuSans-50" transform="translate(700.5625 0)"/>
      <use xlink:href="#DejaVuSans-c" transform="translate(797.96875 0)"/>
     </g>
    </g>
   </g>
   <g id="matplotlib.axis_2">
    <g id="ytick_1">
     <g id="line2d_15">
      <path d="M 45.013203 186.327982 
L 299.742117 186.327982 
" clip-path="url(#p77f3b32c43)" style="fill: none; stroke: #9a9a9a; stroke-opacity: 0.5; stroke-width: 0.4; stroke-linecap: square"/>
     </g>
     <g id="line2d_16">
      <defs>
       <path id="ma9a9e71482" d="M 0 0 
L -3.5 0 
" style="stroke: #000000; stroke-width: 0.8"/>
      </defs>
      <g>
       <use xlink:href="#ma9a9e71482" x="45.013203" y="186.327982" style="stroke: #000000; stroke-width: 0.8"/>
      </g>
     </g>
     <g id="text_9">
      <!-- 0.00 -->
      <g transform="translate(20.200703 189.367044) scale(0.08 -0.08)">
       <defs>
        <path id="DejaVuSans-11" d="M 684 794 
L 1344 794 
L 1344 0 
L 684 0 
L 684 794 
z
" transform="scale(0.015625)"/>
       </defs>
       <use xlink:href="#DejaVuSans-13"/>
       <use xlink:href="#DejaVuSans-11" transform="translate(63.625 0)"/>
       <use xlink:href="#DejaVuSans-13" transform="translate(95.40625 0)"/>
       <use xlink:href="#DejaVuSans-13" transform="translate(159.03125 0)"/>
      </g>
     </g>
    </g>
    <g id="ytick_2">
     <g id="line2d_17">
      <path d="M 45.013203 160.242204 
L 299.742117 160.242204 
" clip-path="url(#p77f3b32c43)" style="fill: none; stroke: #9a9a9a; stroke-opacity: 0.5; stroke-width: 0.4; stroke-linecap: square"/>
     </g>
     <g id="line2d_18">
      <g>
       <use xlink:href="#ma9a9e71482" x="45.013203" y="160.242204" style="stroke: #000000; stroke-width: 0.8"/>
      </g>
     </g>
     <g id="text_10">
      <!-- 0.01 -->
      <g transform="translate(20.200703 163.281266) scale(0.08 -0.08)">
       <use xlink:href="#DejaVuSans-13"/>
       <use xlink:href="#DejaVuSans-11" transform="translate(63.625 0)"/>
       <use xlink:href="#DejaVuSans-13" transform="translate(95.40625 0)"/>
       <use xlink:href="#DejaVuSans-14" transform="translate(159.03125 0)"/>
      </g>
     </g>
    </g>
    <g id="ytick_3">
     <g id="line2d_19">
      <path d="M 45.013203 134.156426 
L 299.742117 134.156426 
" clip-path="url(#p77f3b32c43)" style="fill: none; stroke: #9a9a9a; stroke-opacity: 0.5; stroke-width: 0.4; stroke-linecap: square"/>
     </g>
     <g id="line2d_20">
      <g>
       <use xlink:href="#ma9a9e71482" x="45.013203" y="134.156426" style="stroke: #000000; stroke-width: 0.8"/>
      </g>
     </g>
     <g id="text_11">
      <!-- 0.02 -->
      <g transform="translate(20.200703 137.195488) scale(0.08 -0.08)">
       <use xlink:href="#DejaVuSans-13"/>
       <use xlink:href="#DejaVuSans-11" transform="translate(63.625 0)"/>
       <use xlink:href="#DejaVuSans-13" transform="translate(95.40625 0)"/>
       <use xlink:href="#DejaVuSans-15" transform="translate(159.03125 0)"/>
      </g>
     </g>
    </g>
    <g id="ytick_4">
     <g id="line2d_21">
      <path d="M 45.013203 108.070648 
L 299.742117 108.070648 
" clip-path="url(#p77f3b32c43)" style="fill: none; stroke: #9a9a9a; stroke-opacity: 0.5; stroke-width: 0.4; stroke-linecap: square"/>
     </g>
     <g id="line2d_22">
      <g>
       <use xlink:href="#ma9a9e71482" x="45.013203" y="108.070648" style="stroke: #000000; stroke-width: 0.8"/>
      </g>
     </g>
     <g id="text_12">
      <!-- 0.03 -->
      <g transform="translate(20.200703 111.109711) scale(0.08 -0.08)">
       <use xlink:href="#DejaVuSans-13"/>
       <use xlink:href="#DejaVuSans-11" transform="translate(63.625 0)"/>
       <use xlink:href="#DejaVuSans-13" transform="translate(95.40625 0)"/>
       <use xlink:href="#DejaVuSans-16" transform="translate(159.03125 0)"/>
      </g>
     </g>
    </g>
    <g id="ytick_5">
     <g id="line2d_23">
      <path d="M 45.013203 81.98487 
L 299.742117 81.98487 
" clip-path="url(#p77f3b32c43)" style="fill: none; stroke: #9a9a9a; stroke-opacity: 0.5; stroke-width: 0.4; stroke-linecap: square"/>
     </g>
     <g id="line2d_24">
      <g>
       <use xlink:href="#ma9a9e71482" x="45.013203" y="81.98487" style="stroke: #000000; stroke-width: 0.8"/>
      </g>
     </g>
     <g id="text_13">
      <!-- 0.04 -->
      <g transform="translate(20.200703 85.023933) scale(0.08 -0.08)">
       <use xlink:href="#DejaVuSans-13"/>
       <use xlink:href="#DejaVuSans-11" transform="translate(63.625 0)"/>
       <use xlink:href="#DejaVuSans-13" transform="translate(95.40625 0)"/>
       <use xlink:href="#DejaVuSans-17" transform="translate(159.03125 0)"/>
      </g>
     </g>
    </g>
    <g id="ytick_6">
     <g id="line2d_25">
      <path d="M 45.013203 55.899092 
L 299.742117 55.899092 
" clip-path="url(#p77f3b32c43)" style="fill: none; stroke: #9a9a9a; stroke-opacity: 0.5; stroke-width: 0.4; stroke-linecap: square"/>
     </g>
     <g id="line2d_26">
      <g>
       <use xlink:href="#ma9a9e71482" x="45.013203" y="55.899092" style="stroke: #000000; stroke-width: 0.8"/>
      </g>
     </g>
     <g id="text_14">
      <!-- 0.05 -->
      <g transform="translate(20.200703 58.938155) scale(0.08 -0.08)">
       <use xlink:href="#DejaVuSans-13"/>
       <use xlink:href="#DejaVuSans-11" transform="translate(63.625 0)"/>
       <use xlink:href="#DejaVuSans-13" transform="translate(95.40625 0)"/>
       <use xlink:href="#DejaVuSans-18" transform="translate(159.03125 0)"/>
      </g>
     </g>
    </g>
    <g id="ytick_7">
     <g id="line2d_27">
      <path d="M 45.013203 29.813315 
L 299.742117 29.813315 
" clip-path="url(#p77f3b32c43)" style="fill: none; stroke: #9a9a9a; stroke-opacity: 0.5; stroke-width: 0.4; stroke-linecap: square"/>
     </g>
     <g id="line2d_28">
      <g>
       <use xlink:href="#ma9a9e71482" x="45.013203" y="29.813315" style="stroke: #000000; stroke-width: 0.8"/>
      </g>
     </g>
     <g id="text_15">
      <!-- 0.06 -->
      <g transform="translate(20.200703 32.852377) scale(0.08 -0.08)">
       <use xlink:href="#DejaVuSans-13"/>
       <use xlink:href="#DejaVuSans-11" transform="translate(63.625 0)"/>
       <use xlink:href="#DejaVuSans-13" transform="translate(95.40625 0)"/>
       <use xlink:href="#DejaVuSans-19" transform="translate(159.03125 0)"/>
      </g>
     </g>
    </g>
    <g id="text_16">
     <!-- densidad -->
     <g transform="translate(14.038594 124.106413) rotate(-90) scale(0.09 -0.09)">
      <defs>
       <path id="DejaVuSans-47" d="M 2906 2969 
L 2906 4863 
L 3481 4863 
L 3481 0 
L 2906 0 
L 2906 525 
Q 2725 213 2448 61 
Q 2172 -91 1784 -91 
Q 1150 -91 751 415 
Q 353 922 353 1747 
Q 353 2572 751 3078 
Q 1150 3584 1784 3584 
Q 2172 3584 2448 3432 
Q 2725 3281 2906 2969 
z
M 947 1747 
Q 947 1113 1208 752 
Q 1469 391 1925 391 
Q 2381 391 2643 752 
Q 2906 1113 2906 1747 
Q 2906 2381 2643 2742 
Q 2381 3103 1925 3103 
Q 1469 3103 1208 2742 
Q 947 2381 947 1747 
z
" transform="scale(0.015625)"/>
       <path id="DejaVuSans-48" d="M 3597 1894 
L 3597 1613 
L 953 1613 
Q 991 1019 1311 708 
Q 1631 397 2203 397 
Q 2534 397 2845 478 
Q 3156 559 3463 722 
L 3463 178 
Q 3153 47 2828 -22 
Q 2503 -91 2169 -91 
Q 1331 -91 842 396 
Q 353 884 353 1716 
Q 353 2575 817 3079 
Q 1281 3584 2069 3584 
Q 2775 3584 3186 3129 
Q 3597 2675 3597 1894 
z
M 3022 2063 
Q 3016 2534 2758 2815 
Q 2500 3097 2075 3097 
Q 1594 3097 1305 2825 
Q 1016 2553 972 2059 
L 3022 2063 
z
" transform="scale(0.015625)"/>
       <path id="DejaVuSans-51" d="M 3513 2113 
L 3513 0 
L 2938 0 
L 2938 2094 
Q 2938 2591 2744 2837 
Q 2550 3084 2163 3084 
Q 1697 3084 1428 2787 
Q 1159 2491 1159 1978 
L 1159 0 
L 581 0 
L 581 3500 
L 1159 3500 
L 1159 2956 
Q 1366 3272 1645 3428 
Q 1925 3584 2291 3584 
Q 2894 3584 3203 3211 
Q 3513 2838 3513 2113 
z
" transform="scale(0.015625)"/>
       <path id="DejaVuSans-56" d="M 2834 3397 
L 2834 2853 
Q 2591 2978 2328 3040 
Q 2066 3103 1784 3103 
Q 1356 3103 1142 2972 
Q 928 2841 928 2578 
Q 928 2378 1081 2264 
Q 1234 2150 1697 2047 
L 1894 2003 
Q 2506 1872 2764 1633 
Q 3022 1394 3022 966 
Q 3022 478 2636 193 
Q 2250 -91 1575 -91 
Q 1294 -91 989 -36 
Q 684 19 347 128 
L 347 722 
Q 666 556 975 473 
Q 1284 391 1588 391 
Q 1994 391 2212 530 
Q 2431 669 2431 922 
Q 2431 1156 2273 1281 
Q 2116 1406 1581 1522 
L 1381 1569 
Q 847 1681 609 1914 
Q 372 2147 372 2553 
Q 372 3047 722 3315 
Q 1072 3584 1716 3584 
Q 2034 3584 2315 3537 
Q 2597 3491 2834 3397 
z
" transform="scale(0.015625)"/>
       <path id="DejaVuSans-4c" d="M 603 3500 
L 1178 3500 
L 1178 0 
L 603 0 
L 603 3500 
z
M 603 4863 
L 1178 4863 
L 1178 4134 
L 603 4134 
L 603 4863 
z
" transform="scale(0.015625)"/>
      </defs>
      <use xlink:href="#DejaVuSans-47"/>
      <use xlink:href="#DejaVuSans-48" transform="translate(63.484375 0)"/>
      <use xlink:href="#DejaVuSans-51" transform="translate(125.015625 0)"/>
      <use xlink:href="#DejaVuSans-56" transform="translate(188.390625 0)"/>
      <use xlink:href="#DejaVuSans-4c" transform="translate(240.484375 0)"/>
      <use xlink:href="#DejaVuSans-47" transform="translate(268.265625 0)"/>
      <use xlink:href="#DejaVuSans-44" transform="translate(331.75 0)"/>
      <use xlink:href="#DejaVuSans-47" transform="translate(393.03125 0)"/>
     </g>
    </g>
   </g>
   <g id="patch_3">
    <path d="M 80.570455 186.327982 
L 100.305982 186.327982 
L 100.305982 109.904804 
L 80.570455 109.904804 
z
" clip-path="url(#p77f3b32c43)" style="fill: #9a9a9a; opacity: 0.35; stroke: #ffffff; stroke-width: 0.4; stroke-linejoin: miter"/>
   </g>
   <g id="patch_4">
    <path d="M 100.305982 186.327982 
L 120.04151 186.327982 
L 120.04151 48.766263 
L 100.305982 48.766263 
z
" clip-path="url(#p77f3b32c43)" style="fill: #9a9a9a; opacity: 0.35; stroke: #ffffff; stroke-width: 0.4; stroke-linejoin: miter"/>
   </g>
   <g id="patch_5">
    <path d="M 120.04151 186.327982 
L 139.777037 186.327982 
L 139.777037 64.050898 
L 120.04151 64.050898 
z
" clip-path="url(#p77f3b32c43)" style="fill: #9a9a9a; opacity: 0.35; stroke: #ffffff; stroke-width: 0.4; stroke-linejoin: miter"/>
   </g>
   <g id="patch_6">
    <path d="M 139.777037 186.327982 
L 159.512564 186.327982 
L 159.512564 109.904804 
L 139.777037 109.904804 
z
" clip-path="url(#p77f3b32c43)" style="fill: #9a9a9a; opacity: 0.35; stroke: #ffffff; stroke-width: 0.4; stroke-linejoin: miter"/>
   </g>
   <g id="patch_7">
    <path d="M 159.512564 186.327982 
L 179.248091 186.327982 
L 179.248091 155.758711 
L 159.512564 155.758711 
z
" clip-path="url(#p77f3b32c43)" style="fill: #9a9a9a; opacity: 0.35; stroke: #ffffff; stroke-width: 0.4; stroke-linejoin: miter"/>
   </g>
   <g id="patch_8">
    <path d="M 179.248091 186.327982 
L 198.983618 186.327982 
L 198.983618 140.474075 
L 179.248091 140.474075 
z
" clip-path="url(#p77f3b32c43)" style="fill: #9a9a9a; opacity: 0.35; stroke: #ffffff; stroke-width: 0.4; stroke-linejoin: miter"/>
   </g>
   <g id="line2d_29">
    <path d="M 56.59179 181.458548 
L 58.915252 180.333188 
L 61.238715 178.997079 
L 63.562177 177.423101 
L 65.885639 175.583481 
L 68.209102 173.450476 
L 70.532564 170.997185 
L 72.856026 168.19851 
L 75.179488 165.032229 
L 77.502951 161.480162 
L 79.826413 157.529406 
L 82.149875 153.173582 
L 84.473337 148.414055 
L 87.571287 141.459134 
L 90.669237 133.857726 
L 93.767187 125.69575 
L 97.639624 114.893135 
L 109.256935 81.859062 
L 112.354885 73.942516 
L 114.678347 68.53906 
L 117.001809 63.700961 
L 119.325272 59.517442 
L 120.874246 57.131693 
L 122.423221 55.092806 
L 123.972196 53.418488 
L 125.521171 52.12342 
L 127.070146 51.219043 
L 128.619121 50.713393 
L 130.168096 50.610975 
L 131.71707 50.912706 
L 133.266045 51.615892 
L 134.81502 52.714274 
L 136.363995 54.198119 
L 137.91297 56.054361 
L 139.461945 58.266799 
L 141.01092 60.816325 
L 143.334382 65.224464 
L 145.657844 70.258808 
L 147.981306 75.827425 
L 151.079256 83.912901 
L 154.951693 94.741408 
L 165.794517 125.668215 
L 169.666954 135.789182 
L 172.764904 143.237718 
L 175.862854 150.023897 
L 178.186316 154.651294 
L 180.509778 158.873613 
L 182.83324 162.692165 
L 185.156703 166.115614 
L 187.480165 169.158737 
L 189.803627 171.841175 
L 192.12709 174.186224 
L 194.450552 176.219687 
L 196.774014 177.968841 
L 199.097476 179.461522 
L 201.420939 180.725357 
L 203.744401 181.787127 
L 206.842351 182.932237 
L 209.9403 183.81867 
L 213.03825 184.495683 
L 216.910687 185.111748 
L 221.557612 185.602273 
L 226.979024 185.943914 
L 234.723898 186.182735 
L 247.115697 186.301733 
L 284.291093 186.327932 
L 288.16353 186.327958 
L 288.16353 186.327958 
" clip-path="url(#p77f3b32c43)" style="fill: none; stroke: #1f4e79; stroke-opacity: 0.5; stroke-width: 0.7; stroke-linecap: square"/>
   </g>
   <g id="line2d_30">
    <path d="M 56.59179 186.220213 
L 59.68974 186.011063 
L 62.013202 185.684575 
L 64.336664 185.115794 
L 65.885639 184.546294 
L 67.434614 183.779097 
L 68.983589 182.77161 
L 70.532564 181.479589 
L 72.081539 179.858913 
L 73.630513 177.867562 
L 75.179488 175.46768 
L 76.728463 172.62759 
L 78.277438 169.323643 
L 79.826413 165.541787 
L 81.375388 161.278768 
L 83.69885 154.003463 
L 86.022312 145.744858 
L 88.345775 136.638164 
L 91.443724 123.503365 
L 101.512061 79.63429 
L 103.835523 70.751138 
L 106.158985 62.796383 
L 107.70796 58.0887 
L 109.256935 53.901222 
L 110.80591 50.261955 
L 112.354885 47.19045 
L 113.90386 44.698034 
L 115.452834 42.788197 
L 117.001809 41.457122 
L 117.776297 41.005578 
L 118.550784 40.694298 
L 119.325272 40.521039 
L 120.099759 40.48323 
L 120.874246 40.577993 
L 121.648734 40.802175 
L 122.423221 41.152365 
L 123.972196 42.215997 
L 125.521171 43.737416 
L 127.070146 45.682579 
L 128.619121 48.015587 
L 130.168096 50.699347 
L 132.491558 55.300202 
L 134.81502 60.478669 
L 137.91297 68.069243 
L 141.785407 78.278098 
L 154.177206 111.575663 
L 158.049643 121.090042 
L 161.147593 128.179536 
L 164.245542 134.758426 
L 167.343492 140.805927 
L 170.441442 146.318104 
L 173.539391 151.304264 
L 176.637341 155.783714 
L 179.735291 159.782942 
L 182.83324 163.333234 
L 185.93119 166.468707 
L 189.02914 169.224737 
L 192.12709 171.636736 
L 195.225039 173.739237 
L 198.322989 175.56523 
L 201.420939 177.145719 
L 204.518888 178.509445 
L 208.391326 179.949172 
L 212.263763 181.137283 
L 216.1362 182.114088 
L 220.783124 183.056052 
L 226.204536 183.90082 
L 232.400436 184.609589 
L 239.370823 185.167853 
L 247.890184 185.613923 
L 258.733008 185.945415 
L 274.222757 186.172448 
L 288.16353 186.259137 
L 288.16353 186.259137 
" clip-path="url(#p77f3b32c43)" style="fill: none; stroke: #2e7d32; stroke-opacity: 0.5; stroke-width: 0.7; stroke-linecap: square"/>
   </g>
   <g id="line2d_31">
    <path d="M 56.59179 186.310841 
L 62.013202 186.146883 
L 64.336664 185.908051 
L 66.660127 185.436285 
L 68.209102 184.919372 
L 69.758076 184.175444 
L 71.307051 183.139287 
L 72.856026 181.739874 
L 74.405001 179.903834 
L 75.953976 177.55979 
L 77.502951 174.64319 
L 79.051925 171.101221 
L 80.6009 166.89735 
L 82.149875 162.015052 
L 83.69885 156.460401 
L 85.247825 150.26329 
L 87.571287 139.886096 
L 89.894749 128.459113 
L 93.767187 108.077141 
L 98.414111 83.812235 
L 100.737573 72.714941 
L 103.061036 62.767108 
L 104.610011 56.903206 
L 106.158985 51.720979 
L 107.70796 47.259865 
L 109.256935 43.543617 
L 110.80591 40.581285 
L 112.354885 38.368538 
L 113.129372 37.538626 
L 113.90386 36.889218 
L 114.678347 36.416726 
L 115.452834 36.117034 
L 116.227322 35.985561 
L 117.001809 36.017306 
L 117.776297 36.206907 
L 118.550784 36.548688 
L 119.325272 37.036711 
L 120.874246 38.426685 
L 122.423221 40.325772 
L 123.972196 42.681446 
L 125.521171 45.440853 
L 127.844633 50.223115 
L 130.168096 55.627138 
L 133.266045 63.529035 
L 137.91297 76.218358 
L 145.657844 97.536146 
L 149.530281 107.578869 
L 153.402718 116.948137 
L 156.500668 123.891024 
L 159.598618 130.316543 
L 162.696567 136.219974 
L 165.794517 141.61012 
L 168.892467 146.505503 
L 171.990417 150.931279 
L 175.088366 154.916783 
L 178.186316 158.493636 
L 181.284266 161.694308 
L 184.382215 164.551064 
L 187.480165 167.095213 
L 190.578115 169.356598 
L 193.676064 171.363275 
L 196.774014 173.141329 
L 200.646451 175.07882 
L 204.518888 176.738956 
L 208.391326 178.159383 
L 213.03825 179.593821 
L 217.685175 180.779977 
L 223.106587 181.905405 
L 228.527999 182.804578 
L 234.723898 183.612134 
L 241.694285 184.302733 
L 250.213647 184.913876 
L 260.281983 185.403557 
L 272.673782 185.780441 
L 288.16353 186.043617 
L 288.16353 186.043617 
" clip-path="url(#p77f3b32c43)" style="fill: none; stroke: #e07b00; stroke-opacity: 0.5; stroke-width: 0.7; stroke-linecap: square"/>
   </g>
   <g id="line2d_32">
    <path d="M 56.59179 186.162376 
L 59.68974 185.918957 
L 62.013202 185.571142 
L 64.336664 184.995774 
L 65.885639 184.435916 
L 67.434614 183.693548 
L 68.983589 182.728784 
L 70.532564 181.498991 
L 72.081539 179.96018 
L 73.630513 178.068726 
L 75.179488 175.783329 
L 76.728463 173.067107 
L 78.277438 169.889709 
L 79.826413 166.229301 
L 81.375388 162.074303 
L 82.924363 157.42476 
L 85.247825 149.554238 
L 87.571287 140.699198 
L 89.894749 131.019212 
L 93.767187 113.654182 
L 99.963086 85.465784 
L 103.061036 72.611254 
L 105.384498 64.004847 
L 107.70796 56.504328 
L 109.256935 52.192302 
L 110.80591 48.468138 
L 112.354885 45.352484 
L 113.90386 42.856315 
L 115.452834 40.981459 
L 116.227322 40.275265 
L 117.001809 39.721305 
L 117.776297 39.317568 
L 118.550784 39.061626 
L 119.325272 38.950662 
L 120.099759 38.981502 
L 120.874246 39.150645 
L 121.648734 39.454292 
L 123.197709 40.448614 
L 124.746684 41.929323 
L 126.295658 43.858444 
L 127.844633 46.196058 
L 129.393608 48.901103 
L 131.71707 53.556947 
L 134.040533 58.807905 
L 137.138482 66.505841 
L 141.01092 76.842918 
L 152.628231 108.38269 
L 156.500668 118.054578 
L 159.598618 125.279335 
L 162.696567 132.000911 
L 165.794517 138.198046 
L 168.892467 143.866225 
L 171.990417 149.013889 
L 175.088366 153.659137 
L 178.186316 157.826933 
L 181.284266 161.546798 
L 184.382215 164.850952 
L 187.480165 167.772849 
L 190.578115 170.346054 
L 193.676064 172.603415 
L 196.774014 174.576463 
L 199.871964 176.295005 
L 202.969914 177.786875 
L 206.842351 179.371933 
L 210.714788 180.688343 
L 214.587225 181.776419 
L 219.234149 182.830184 
L 223.881074 183.658293 
L 229.302486 184.397373 
L 235.498385 185.011295 
L 243.24326 185.527723 
L 252.537109 185.901154 
L 264.928908 186.15392 
L 284.291093 186.291489 
L 288.16353 186.302012 
L 288.16353 186.302012 
" clip-path="url(#p77f3b32c43)" style="fill: none; stroke: #6a1b9a; stroke-opacity: 0.5; stroke-width: 0.7; stroke-linecap: square"/>
   </g>
   <g id="line2d_33">
    <path d="M 56.59179 186.327982 
L 64.336664 186.241382 
L 65.885639 186.06716 
L 67.434614 185.710244 
L 68.983589 185.083635 
L 70.532564 184.097202 
L 72.081539 182.665467 
L 73.630513 180.714168 
L 75.179488 178.185226 
L 76.728463 175.040009 
L 78.277438 171.260966 
L 79.826413 166.85185 
L 81.375388 161.836759 
L 83.69885 153.275533 
L 86.022312 143.658624 
L 89.120262 129.660402 
L 98.414111 86.50087 
L 100.737573 76.950224 
L 103.061036 68.351393 
L 105.384498 60.856797 
L 106.933473 56.528287 
L 108.482448 52.759345 
L 110.031422 49.562282 
L 111.580397 46.941728 
L 113.129372 44.895277 
L 114.678347 43.414192 
L 115.452834 42.88138 
L 116.227322 42.484136 
L 117.001809 42.219917 
L 117.776297 42.085921 
L 118.550784 42.079111 
L 119.325272 42.19624 
L 120.099759 42.433868 
L 121.648734 43.256044 
L 123.197709 44.515111 
L 124.746684 46.178781 
L 126.295658 48.213577 
L 127.844633 50.58536 
L 130.168096 54.699823 
L 132.491558 59.380714 
L 134.81502 64.517126 
L 137.91297 71.893528 
L 142.559894 83.634694 
L 151.853743 107.326237 
L 155.726181 116.610457 
L 159.598618 125.305367 
L 162.696567 131.773526 
L 165.794517 137.778015 
L 168.892467 143.307045 
L 171.990417 148.36096 
L 175.088366 152.949691 
L 178.186316 157.090485 
L 181.284266 160.805919 
L 184.382215 164.122219 
L 187.480165 167.067846 
L 190.578115 169.672346 
L 193.676064 171.965442 
L 196.774014 173.976322 
L 199.871964 175.733112 
L 202.969914 177.2625 
L 206.842351 178.892356 
L 210.714788 180.25057 
L 214.587225 181.377233 
L 219.234149 182.473191 
L 223.881074 183.339438 
L 229.302486 184.118613 
L 235.498385 184.773514 
L 242.468772 185.289163 
L 250.988134 185.699549 
L 262.605445 186.016375 
L 278.869681 186.214461 
L 288.16353 186.265047 
L 288.16353 186.265047 
" clip-path="url(#p77f3b32c43)" style="fill: none; stroke: #00838f; stroke-opacity: 0.5; stroke-width: 0.7; stroke-linecap: square"/>
   </g>
   <g id="line2d_34">
    <path d="M 56.59179 186.266037 
L 60.464227 186.050684 
L 62.78769 185.734323 
L 65.111152 185.162359 
L 66.660127 184.576295 
L 68.209102 183.77498 
L 69.758076 182.710259 
L 71.307051 181.332406 
L 72.856026 179.592372 
L 74.405001 177.444231 
L 75.953976 174.847679 
L 77.502951 171.770393 
L 79.051925 168.190107 
L 80.6009 164.096273 
L 82.149875 159.491196 
L 84.473337 151.663094 
L 86.7968 142.832308 
L 89.120262 133.169886 
L 92.992699 115.839111 
L 99.188599 87.710855 
L 102.286548 74.849399 
L 104.610011 66.20042 
L 106.933473 58.614893 
L 108.482448 54.219509 
L 110.031422 50.389581 
L 111.580397 47.145779 
L 113.129372 44.499909 
L 114.678347 42.455387 
L 116.227322 41.007845 
L 117.001809 40.504623 
L 117.776297 40.145849 
L 118.550784 39.929117 
L 119.325272 39.851683 
L 120.099759 39.910487 
L 120.874246 40.102182 
L 121.648734 40.42316 
L 123.197709 41.437389 
L 124.746684 42.92008 
L 126.295658 44.835595 
L 127.844633 47.14651 
L 129.393608 49.814305 
L 131.71707 54.39991 
L 134.040533 59.570273 
L 137.138482 67.156102 
L 141.01092 77.362127 
L 153.402718 110.639648 
L 157.275155 120.147693 
L 160.373105 127.235065 
L 163.471055 133.815731 
L 166.569005 139.869785 
L 169.666954 145.393828 
L 172.764904 150.397367 
L 175.862854 154.899607 
L 178.960803 158.926681 
L 182.058753 162.509324 
L 185.156703 165.680971 
L 188.254652 168.476236 
L 191.352602 170.929747 
L 194.450552 173.075259 
L 197.548502 174.945029 
L 200.646451 176.569395 
L 203.744401 177.976509 
L 207.616838 179.469027 
L 211.489275 180.707599 
L 215.361712 181.731957 
L 220.008637 182.726607 
L 225.430049 183.626376 
L 231.625948 184.389367 
L 238.596335 184.998122 
L 247.115697 185.492414 
L 257.958521 185.867678 
L 272.673782 186.124129 
L 288.16353 186.241736 
L 288.16353 186.241736 
" clip-path="url(#p77f3b32c43)" style="fill: none; stroke: #1f4e79; stroke-opacity: 0.5; stroke-width: 0.7; stroke-linecap: square"/>
   </g>
   <g id="line2d_35">
    <path d="M 56.59179 122.723836 
L 63.562177 126.658235 
L 70.532564 130.349262 
L 78.277438 134.183245 
L 86.022312 137.754638 
L 93.767187 141.081427 
L 101.512061 144.180364 
L 110.031422 147.344618 
L 118.550784 150.271315 
L 127.844633 153.214061 
L 137.138482 155.916637 
L 146.432331 158.398643 
L 156.500668 160.85942 
L 167.343492 163.267576 
L 178.186316 165.448031 
L 189.803627 167.555973 
L 202.195426 169.570422 
L 215.361712 171.474455 
L 229.302486 173.255227 
L 244.017747 174.903845 
L 259.507496 176.415134 
L 276.546219 177.847686 
L 288.16353 178.703817 
L 288.16353 178.703817 
" clip-path="url(#p77f3b32c43)" style="fill: none; stroke: #c00000; stroke-opacity: 0.5; stroke-width: 0.7; stroke-linecap: square"/>
   </g>
   <g id="line2d_36">
    <path d="M 56.59179 178.070457 
L 58.915252 176.363447 
L 61.238715 174.442829 
L 63.562177 172.299518 
L 66.660127 169.082174 
L 69.758076 165.44135 
L 72.856026 161.369044 
L 75.953976 156.864337 
L 79.051925 151.934555 
L 82.149875 146.596428 
L 86.022312 139.392134 
L 89.894749 131.67201 
L 94.541674 121.883105 
L 109.256935 90.258803 
L 112.354885 84.239258 
L 115.452834 78.725414 
L 117.776297 75.001089 
L 120.099759 71.689379 
L 122.423221 68.841971 
L 123.972196 67.225568 
L 125.521171 65.850086 
L 127.070146 64.727516 
L 128.619121 63.868584 
L 130.168096 63.282599 
L 131.71707 62.977318 
L 133.266045 62.958806 
L 134.81502 63.231327 
L 136.363995 63.797234 
L 137.91297 64.656888 
L 139.461945 65.808595 
L 141.01092 67.24856 
L 142.559894 68.970867 
L 144.108869 70.967491 
L 146.432331 74.454115 
L 148.755794 78.492216 
L 151.079256 83.02979 
L 153.402718 88.006369 
L 156.500668 95.206967 
L 160.373105 104.867426 
L 173.539391 138.542866 
L 176.637341 145.705078 
L 179.735291 152.310598 
L 182.83324 158.282932 
L 185.156703 162.318255 
L 187.480165 165.96335 
L 189.803627 169.219086 
L 192.12709 172.094229 
L 194.450552 174.604331 
L 196.774014 176.770478 
L 199.097476 178.617978 
L 201.420939 180.175056 
L 203.744401 181.471606 
L 206.067863 182.53805 
L 208.391326 183.404355 
L 211.489275 184.297426 
L 214.587225 184.948009 
L 218.459662 185.502945 
L 223.106587 185.903843 
L 229.302486 186.167631 
L 238.596335 186.297316 
L 264.15442 186.327899 
L 288.16353 186.327982 
L 288.16353 186.327982 
" clip-path="url(#p77f3b32c43)" style="fill: none; stroke: #2e7d32; stroke-opacity: 0.5; stroke-width: 0.7; stroke-linecap: square"/>
   </g>
   <g id="line2d_37">
    <path d="M 56.59179 185.822341 
L 58.915252 185.435557 
L 61.238715 184.833652 
L 63.562177 183.940111 
L 65.111152 183.140054 
L 66.660127 182.144961 
L 68.209102 180.927245 
L 69.758076 179.459713 
L 71.307051 177.716446 
L 72.856026 175.673703 
L 74.405001 173.310829 
L 75.953976 170.61111 
L 77.502951 167.562558 
L 79.051925 164.158587 
L 81.375388 158.38651 
L 83.69885 151.839412 
L 86.022312 144.574961 
L 89.120262 133.932828 
L 92.992699 119.519323 
L 102.286548 84.2456 
L 105.384498 73.740712 
L 107.70796 66.674502 
L 110.031422 60.450179 
L 111.580397 56.821057 
L 113.129372 53.63754 
L 114.678347 50.918589 
L 116.227322 48.677666 
L 117.776297 46.922797 
L 119.325272 45.656713 
L 120.874246 44.877086 
L 121.648734 44.667653 
L 122.423221 44.57682 
L 123.197709 44.603015 
L 123.972196 44.744413 
L 125.521171 45.364349 
L 127.070146 46.417544 
L 128.619121 47.881795 
L 130.168096 49.732257 
L 131.71707 51.941917 
L 133.266045 54.482059 
L 135.589508 58.846155 
L 137.91297 63.782132 
L 141.01092 71.071407 
L 144.883357 80.979802 
L 151.853743 99.745931 
L 157.275155 114.0565 
L 161.147593 123.680485 
L 164.245542 130.884328 
L 167.343492 137.58451 
L 170.441442 143.746763 
L 173.539391 149.356246 
L 176.637341 154.414219 
L 179.735291 158.93479 
L 182.058753 161.986644 
L 184.382215 164.762328 
L 186.705678 167.276297 
L 189.02914 169.544141 
L 192.12709 172.213247 
L 195.225039 174.513027 
L 198.322989 176.48242 
L 201.420939 178.159046 
L 204.518888 179.578491 
L 207.616838 180.773828 
L 211.489275 181.998696 
L 215.361712 182.973206 
L 220.008637 183.875906 
L 224.655561 184.549547 
L 230.076973 185.116716 
L 237.04736 185.599008 
L 245.566722 185.943845 
L 257.184033 186.172786 
L 276.546219 186.29619 
L 288.16353 186.316185 
L 288.16353 186.316185 
" clip-path="url(#p77f3b32c43)" style="fill: none; stroke: #e07b00; stroke-opacity: 0.5; stroke-width: 0.7; stroke-linecap: square"/>
   </g>
   <g id="line2d_38">
    <path d="M 56.59179 186.327982 
L 71.307051 186.221154 
L 72.856026 185.996432 
L 74.405001 185.462179 
L 75.179488 185.004667 
L 75.953976 184.371049 
L 76.728463 183.520326 
L 77.502951 182.410179 
L 78.277438 180.998959 
L 79.051925 179.247791 
L 79.826413 177.12262 
L 80.6009 174.596056 
L 82.149875 168.271117 
L 83.69885 160.23333 
L 85.247825 150.59914 
L 86.7968 139.625455 
L 89.120262 121.462644 
L 93.767187 84.268382 
L 96.090649 67.804352 
L 97.639624 58.242904 
L 99.188599 49.990749 
L 100.737573 43.122645 
L 102.286548 37.654811 
L 103.835523 33.55605 
L 104.610011 32.000134 
L 105.384498 30.758979 
L 106.158985 29.820221 
L 106.933473 29.170471 
L 107.70796 28.795567 
L 108.482448 28.680797 
L 109.256935 28.8111 
L 110.031422 29.171249 
L 110.80591 29.745997 
L 111.580397 30.520217 
L 113.129372 32.607822 
L 114.678347 35.319267 
L 116.227322 38.547124 
L 118.550784 44.143979 
L 120.874246 50.390429 
L 124.746684 61.603106 
L 132.491558 84.337411 
L 136.363995 94.952244 
L 139.461945 102.872232 
L 142.559894 110.233725 
L 145.657844 117.023729 
L 148.755794 123.250227 
L 151.853743 128.934896 
L 154.951693 134.107804 
L 158.049643 138.803608 
L 161.147593 143.058918 
L 164.245542 146.910487 
L 167.343492 150.39404 
L 170.441442 153.543536 
L 173.539391 156.390746 
L 176.637341 158.965051 
L 179.735291 161.293386 
L 183.607728 163.895062 
L 187.480165 166.193468 
L 191.352602 168.226324 
L 195.225039 170.026664 
L 199.871964 171.920506 
L 204.518888 173.563785 
L 209.9403 175.212436 
L 215.361712 176.617552 
L 221.557612 177.975868 
L 228.527999 179.245398 
L 236.272873 180.398213 
L 244.792235 181.419376 
L 254.086084 182.304777 
L 264.928908 183.109172 
L 277.320706 183.805828 
L 288.16353 184.272207 
L 288.16353 184.272207 
" clip-path="url(#p77f3b32c43)" style="fill: none; stroke: #6a1b9a; stroke-opacity: 0.5; stroke-width: 0.7; stroke-linecap: square"/>
   </g>
   <g id="line2d_39">
    <path d="M 56.59179 186.327975 
L 66.660127 186.246758 
L 68.983589 186.026673 
L 70.532564 185.687844 
L 72.081539 185.077117 
L 73.630513 184.05869 
L 74.405001 183.347629 
L 75.179488 182.47422 
L 75.953976 181.41753 
L 76.728463 180.15729 
L 78.277438 176.952284 
L 79.826413 172.734379 
L 81.375388 167.427047 
L 82.924363 161.014136 
L 84.473337 153.544844 
L 86.022312 145.131356 
L 88.345775 131.116554 
L 96.865136 77.013662 
L 99.188599 64.697802 
L 100.737573 57.57946 
L 102.286548 51.424072 
L 103.835523 46.2708 
L 105.384498 42.12951 
L 106.933473 38.985044 
L 107.70796 37.776156 
L 108.482448 36.801755 
L 109.256935 36.05492 
L 110.031422 35.528 
L 110.80591 35.212733 
L 111.580397 35.100364 
L 112.354885 35.181749 
L 113.129372 35.44746 
L 113.90386 35.887869 
L 114.678347 36.493235 
L 116.227322 38.159743 
L 117.776297 40.3694 
L 119.325272 43.04675 
L 120.874246 46.119789 
L 123.197709 51.324735 
L 126.295658 59.061571 
L 130.942583 71.566875 
L 137.91297 90.447364 
L 141.785407 100.339197 
L 145.657844 109.559162 
L 148.755794 116.391386 
L 151.853743 122.721553 
L 154.951693 128.551239 
L 158.049643 133.894202 
L 161.147593 138.772309 
L 164.245542 143.212458 
L 167.343492 147.244297 
L 170.441442 150.898567 
L 173.539391 154.205936 
L 176.637341 157.1962 
L 179.735291 159.897764 
L 182.83324 162.337328 
L 185.93119 164.539719 
L 189.803627 166.993883 
L 193.676064 169.153618 
L 197.548502 171.054972 
L 201.420939 172.72982 
L 206.067863 174.479921 
L 210.714788 175.986128 
L 216.1362 177.482608 
L 221.557612 178.743458 
L 227.753511 179.946241 
L 234.723898 181.052393 
L 242.468772 182.037684 
L 250.988134 182.890969 
L 261.05647 183.663756 
L 272.673782 184.323159 
L 286.614556 184.88451 
L 288.16353 184.935106 
L 288.16353 184.935106 
" clip-path="url(#p77f3b32c43)" style="fill: none; stroke: #00838f; stroke-opacity: 0.5; stroke-width: 0.7; stroke-linecap: square"/>
   </g>
   <g id="line2d_40">
    <path d="M 56.59179 141.201539 
L 75.953976 139.838937 
L 92.218212 138.477731 
L 106.158985 137.095406 
L 117.776297 135.737187 
L 127.844633 134.355639 
L 137.138482 132.85336 
L 144.883357 131.37713 
L 151.853743 129.812573 
L 157.275155 128.389253 
L 162.696567 126.723721 
L 167.343492 125.037866 
L 171.215929 123.387418 
L 174.313879 121.853578 
L 177.411829 120.068338 
L 179.735291 118.513454 
L 182.058753 116.71442 
L 184.382215 114.590396 
L 185.93119 112.934138 
L 187.480165 111.022558 
L 189.02914 108.772892 
L 190.578115 106.056551 
L 192.12709 102.658766 
L 192.901577 100.592467 
L 193.676064 98.182322 
L 194.450552 95.306556 
L 195.225039 91.768508 
L 195.999527 87.221578 
L 196.774014 80.971146 
L 197.548502 71.298027 
L 198.322989 51.621558 
L 199.097476 186.327982 
L 288.16353 186.327982 
L 288.16353 186.327982 
" clip-path="url(#p77f3b32c43)" style="fill: none; stroke: #1f4e79; stroke-opacity: 0.5; stroke-width: 0.7; stroke-linecap: square"/>
   </g>
   <g id="patch_9">
    <path d="M 45.013203 186.327982 
L 45.013203 20.798437 
" style="fill: none; stroke: #000000; stroke-width: 0.8; stroke-linejoin: miter; stroke-linecap: square"/>
   </g>
   <g id="patch_10">
    <path d="M 45.013203 186.327982 
L 299.742117 186.327982 
" style="fill: none; stroke: #000000; stroke-width: 0.8; stroke-linejoin: miter; stroke-linecap: square"/>
   </g>
   <g id="text_17">
    <!-- Histograma y densidades  21201240 -->
    <g transform="translate(80.103441 14.798437) scale(0.1 -0.1)">
     <defs>
      <path id="DejaVuSans-2b" d="M 628 4666 
L 1259 4666 
L 1259 2753 
L 3553 2753 
L 3553 4666 
L 4184 4666 
L 4184 0 
L 3553 0 
L 3553 2222 
L 1259 2222 
L 1259 0 
L 628 0 
L 628 4666 
z
" transform="scale(0.015625)"/>
      <path id="DejaVuSans-57" d="M 1172 4494 
L 1172 3500 
L 2356 3500 
L 2356 3053 
L 1172 3053 
L 1172 1153 
Q 1172 725 1289 603 
Q 1406 481 1766 481 
L 2356 481 
L 2356 0 
L 1766 0 
Q 1100 0 847 248 
Q 594 497 594 1153 
L 594 3053 
L 172 3053 
L 172 3500 
L 594 3500 
L 594 4494 
L 1172 4494 
z
" transform="scale(0.015625)"/>
      <path id="DejaVuSans-52" d="M 1959 3097 
Q 1497 3097 1228 2736 
Q 959 2375 959 1747 
Q 959 1119 1226 758 
Q 1494 397 1959 397 
Q 2419 397 2687 759 
Q 2956 1122 2956 1747 
Q 2956 2369 2687 2733 
Q 2419 3097 1959 3097 
z
M 1959 3584 
Q 2709 3584 3137 3096 
Q 3566 2609 3566 1747 
Q 3566 888 3137 398 
Q 2709 -91 1959 -91 
Q 1206 -91 779 398 
Q 353 888 353 1747 
Q 353 2609 779 3096 
Q 1206 3584 1959 3584 
z
" transform="scale(0.015625)"/>
      <path id="DejaVuSans-4a" d="M 2906 1791 
Q 2906 2416 2648 2759 
Q 2391 3103 1925 3103 
Q 1463 3103 1205 2759 
Q 947 2416 947 1791 
Q 947 1169 1205 825 
Q 1463 481 1925 481 
Q 2391 481 2648 825 
Q 2906 1169 2906 1791 
z
M 3481 434 
Q 3481 -459 3084 -895 
Q 2688 -1331 1869 -1331 
Q 1566 -1331 1297 -1286 
Q 1028 -1241 775 -1147 
L 775 -588 
Q 1028 -725 1275 -790 
Q 1522 -856 1778 -856 
Q 2344 -856 2625 -561 
Q 2906 -266 2906 331 
L 2906 616 
Q 2728 306 2450 153 
Q 2172 0 1784 0 
Q 1141 0 747 490 
Q 353 981 353 1791 
Q 353 2603 747 3093 
Q 1141 3584 1784 3584 
Q 2172 3584 2450 3431 
Q 2728 3278 2906 2969 
L 2906 3500 
L 3481 3500 
L 3481 434 
z
" transform="scale(0.015625)"/>
      <path id="DejaVuSans-55" d="M 2631 2963 
Q 2534 3019 2420 3045 
Q 2306 3072 2169 3072 
Q 1681 3072 1420 2755 
Q 1159 2438 1159 1844 
L 1159 0 
L 581 0 
L 581 3500 
L 1159 3500 
L 1159 2956 
Q 1341 3275 1631 3429 
Q 1922 3584 2338 3584 
Q 2397 3584 2469 3576 
Q 2541 3569 2628 3553 
L 2631 2963 
z
" transform="scale(0.015625)"/>
      <path id="DejaVuSans-5c" d="M 2059 -325 
Q 1816 -950 1584 -1140 
Q 1353 -1331 966 -1331 
L 506 -1331 
L 506 -850 
L 844 -850 
Q 1081 -850 1212 -737 
Q 1344 -625 1503 -206 
L 1606 56 
L 191 3500 
L 800 3500 
L 1894 763 
L 2988 3500 
L 3597 3500 
L 2059 -325 
z
" transform="scale(0.015625)"/>
     </defs>
     <use xlink:href="#DejaVuSans-2b"/>
     <use xlink:href="#DejaVuSans-4c" transform="translate(75.203125 0)"/>
     <use xlink:href="#DejaVuSans-56" transform="translate(102.984375 0)"/>
     <use xlink:href="#DejaVuSans-57" transform="translate(155.078125 0)"/>
     <use xlink:href="#DejaVuSans-52" transform="translate(194.28125 0)"/>
     <use xlink:href="#DejaVuSans-4a" transform="translate(255.46875 0)"/>
     <use xlink:href="#DejaVuSans-55" transform="translate(318.953125 0)"/>
     <use xlink:href="#DejaVuSans-44" transform="translate(360.0625 0)"/>
     <use xlink:href="#DejaVuSans-50" transform="translate(421.34375 0)"/>
     <use xlink:href="#DejaVuSans-44" transform="translate(518.75 0)"/>
     <use xlink:href="#DejaVuSans-3" transform="translate(580.03125 0)"/>
     <use xlink:href="#DejaVuSans-5c" transform="translate(611.8125 0)"/>
     <use xlink:href="#DejaVuSans-3" transform="translate(671 0)"/>
     <use xlink:href="#DejaVuSans-47" transform="translate(702.78125 0)"/>
     <use xlink:href="#DejaVuSans-48" transform="translate(766.265625 0)"/>
     <use xlink:href="#DejaVuSans-51" transform="translate(827.796875 0)"/>
     <use xlink:href="#DejaVuSans-56" transform="translate(891.171875 0)"/>
     <use xlink:href="#DejaVuSans-4c" transform="translate(943.265625 0)"/>
     <use xlink:href="#DejaVuSans-47" transform="translate(971.046875 0)"/>
     <use xlink:href="#DejaVuSans-44" transform="translate(1034.53125 0)"/>
     <use xlink:href="#DejaVuSans-47" transform="translate(1095.8125 0)"/>
     <use xlink:href="#DejaVuSans-48" transform="translate(1159.296875 0)"/>
     <use xlink:href="#DejaVuSans-56" transform="translate(1220.828125 0)"/>
     <use xlink:href="#DejaVuSans-3" transform="translate(1272.921875 0)"/>
     <use xlink:href="#DejaVuSans-3" transform="translate(1304.703125 0)"/>
     <use xlink:href="#DejaVuSans-15" transform="translate(1336.484375 0)"/>
     <use xlink:href="#DejaVuSans-14" transform="translate(1400.109375 0)"/>
     <use xlink:href="#DejaVuSans-15" transform="translate(1463.734375 0)"/>
     <use xlink:href="#DejaVuSans-13" transform="translate(1527.359375 0)"/>
     <use xlink:href="#DejaVuSans-14" transform="translate(1590.984375 0)"/>
     <use xlink:href="#DejaVuSans-15" transform="translate(1654.609375 0)"/>
     <use xlink:href="#DejaVuSans-17" transform="translate(1718.234375 0)"/>
     <use xlink:href="#DejaVuSans-13" transform="translate(1781.859375 0)"/>
    </g>
   </g>
   <g id="line2d_41">
    <path d="M 56.59179 186.261769 
L 60.464227 186.037318 
L 62.78769 185.711343 
L 65.111152 185.126346 
L 66.660127 184.529939 
L 68.209102 183.717375 
L 69.758076 182.641044 
L 71.307051 181.251912 
L 72.856026 179.501716 
L 74.405001 177.345368 
L 75.953976 174.743382 
L 77.502951 171.664174 
L 79.051925 168.086082 
L 80.6009 163.998972 
L 82.149875 159.405346 
L 84.473337 151.603135 
L 86.7968 142.80761 
L 89.120262 133.187653 
L 92.992699 115.935471 
L 99.188599 87.919043 
L 102.286548 75.092828 
L 104.610011 66.457855 
L 106.933473 58.87509 
L 108.482448 54.47542 
L 110.031422 50.636584 
L 111.580397 47.379615 
L 113.129372 44.716772 
L 114.678347 42.651991 
L 116.227322 41.181467 
L 117.001809 40.665917 
L 117.776297 40.294355 
L 118.550784 40.064451 
L 119.325272 39.973532 
L 120.099759 40.018612 
L 120.874246 40.196415 
L 121.648734 40.5034 
L 123.197709 41.489604 
L 124.746684 42.944626 
L 126.295658 44.833276 
L 127.844633 47.118516 
L 129.393608 49.76216 
L 131.71707 54.314972 
L 134.040533 59.457234 
L 137.138482 67.013526 
L 141.01092 77.195592 
L 153.402718 110.477129 
L 157.275155 120.003097 
L 160.373105 127.107537 
L 163.471055 133.706517 
L 166.569005 139.779219 
L 169.666954 145.321511 
L 172.764904 150.342341 
L 175.862854 154.860514 
L 178.960803 158.901906 
L 182.058753 162.497114 
L 185.156703 165.679529 
L 188.254652 168.483801 
L 191.352602 170.944644 
L 194.450552 173.09594 
L 197.548502 174.970098 
L 200.646451 176.597616 
L 203.744401 178.006812 
L 207.616838 179.500674 
L 211.489275 180.739465 
L 215.361712 181.763182 
L 220.008637 182.75625 
L 225.430049 183.653459 
L 231.625948 184.413062 
L 238.596335 185.017905 
L 247.115697 185.507758 
L 257.958521 185.878339 
L 272.673782 186.130297 
L 288.16353 186.245045 
L 288.16353 186.245045 
" clip-path="url(#p77f3b32c43)" style="fill: none; stroke: #c00000; stroke-width: 2.2; stroke-linecap: square"/>
   </g>
   <g id="legend_1">
    <g id="line2d_42">
     <path d="M 234.189305 29.967344 
L 241.189305 29.967344 
L 248.189305 29.967344 
" style="fill: none; stroke: #c00000; stroke-width: 2.2; stroke-linecap: square"/>
    </g>
    <g id="text_18">
     <!-- lognormal2 -->
     <g transform="translate(253.789305 32.417344) scale(0.07 -0.07)">
      <defs>
       <path id="DejaVuSans-4f" d="M 603 4863 
L 1178 4863 
L 1178 0 
L 603 0 
L 603 4863 
z
" transform="scale(0.015625)"/>
      </defs>
      <use xlink:href="#DejaVuSans-4f"/>
      <use xlink:href="#DejaVuSans-52" transform="translate(27.78125 0)"/>
      <use xlink:href="#DejaVuSans-4a" transform="translate(88.96875 0)"/>
      <use xlink:href="#DejaVuSans-51" transform="translate(152.453125 0)"/>
      <use xlink:href="#DejaVuSans-52" transform="translate(215.828125 0)"/>
      <use xlink:href="#DejaVuSans-55" transform="translate(277.015625 0)"/>
      <use xlink:href="#DejaVuSans-50" transform="translate(316.375 0)"/>
      <use xlink:href="#DejaVuSans-44" transform="translate(413.78125 0)"/>
      <use xlink:href="#DejaVuSans-4f" transform="translate(475.0625 0)"/>
      <use xlink:href="#DejaVuSans-15" transform="translate(502.84375 0)"/>
     </g>
    </g>
   </g>
  </g>
 </g>
 <defs>
  <clipPath id="p77f3b32c43">
   <rect x="45.013203" y="20.798437" width="254.728914" height="165.529544"/>
  </clipPath>
 </defs>
</svg>
